<svg xmlns="http://www.w3.org/2000/svg" data-name="Layer 1" viewBox="0 0 64 64"><path d="M54,34.48633v-.3291a22,22,0,0,0-44,0v.3291h1v-.3291a21,21,0,0,1,42,0v.3291ZM32,3A26.02916,26.02916,0,0,0,6,29V52.5a2.50374,2.50374,0,0,0,2,2.44946V56.5A4.50491,4.50491,0,0,0,12.5,61h5A4.50491,4.50491,0,0,0,22,56.5v-12A4.50491,4.50491,0,0,0,17.5,40h-5A4.475,4.475,0,0,0,9,41.70648V36.9079A1.48254,1.48254,0,0,0,9.5,37,1.50164,1.50164,0,0,0,11,35.5v-1H10v1a.5.5,0,0,1-1,0V34.07812a23,23,0,0,1,46,0V35.5a.5.5,0,0,1-1,0v-1H53v1A1.50164,1.50164,0,0,0,54.5,37a1.48254,1.48254,0,0,0,.5-.0921v3.60455A2.47637,2.47637,0,0,0,53.5,40h-7A4.50491,4.50491,0,0,0,42,44.5v12A4.50491,4.50491,0,0,0,46.5,61h7A2.50231,2.50231,0,0,0,56,58.5V54.94946A2.50345,2.50345,0,0,0,58,52.5V29A26.02885,26.02885,0,0,0,32,3ZM13,41h4.5A3.50424,3.50424,0,0,1,21,44.5v12A3.50424,3.50424,0,0,1,17.5,60H13ZM51,60H46.5A3.50424,3.50424,0,0,1,43,56.5v-12A3.50424,3.50424,0,0,1,46.5,41H51Zm4-1.5A1.50164,1.50164,0,0,1,53.5,60H52V41h1v3.5a.5.5,0,0,0,1,0V41.0921A1.49758,1.49758,0,0,1,55,42.5ZM10,42.05829V44.5a.5.5,0,0,0,1,0v-3a.48567.48567,0,0,0-.027-.13422A3.45148,3.45148,0,0,1,12,41.05054V59.94946A3.495,3.495,0,0,1,9,56.5v-12A3.48511,3.48511,0,0,1,10,42.05829ZM32,10.07812A24.0421,24.0421,0,0,0,9.10846,26.86774a22.9978,22.9978,0,0,1,45.78308,0A24.0421,24.0421,0,0,0,32,10.07812ZM57,52.5a1.50151,1.50151,0,0,1-1,1.41406V29.07812a24,24,0,0,0-48,0V53.91406A1.50151,1.50151,0,0,1,7,52.5V29a25,25,0,0,1,50,0ZM53.5,56a.49971.49971,0,0,0-.5.5v1a.5.5,0,0,0,1,0v-1A.49971.49971,0,0,0,53.5,56Z"/></svg>