<svg width="287" height="210" viewBox="0 0 287 210" fill="none" xmlns="http://www.w3.org/2000/svg">
<path d="M264.855 183.625C265.404 182.91 266.544 183.228 266.643 184.124L267.333 190.388C267.375 190.769 267.632 191.093 267.994 191.221L273.935 193.322C274.785 193.622 274.835 194.805 274.013 195.176L268.269 197.768C267.919 197.926 267.69 198.27 267.68 198.654L267.518 204.954C267.495 205.855 266.385 206.268 265.779 205.601L261.539 200.939C261.281 200.655 260.883 200.544 260.515 200.653L254.473 202.445C253.609 202.702 252.873 201.774 253.32 200.991L256.444 195.518C256.634 195.185 256.617 194.772 256.399 194.455L252.827 189.264C252.316 188.521 252.972 187.535 253.854 187.718L260.025 188.997C260.401 189.075 260.788 188.931 261.021 188.626L264.855 183.625Z" fill="url(#paint0_linear_0_258)"/>
<path d="M276.432 79.8326C276.98 79.1172 278.121 79.4355 278.22 80.3315L278.686 84.5623C278.728 84.9438 278.984 85.2676 279.346 85.3956L283.359 86.8145C284.209 87.1149 284.259 88.298 283.437 88.6688L279.557 90.4193C279.207 90.5772 278.979 90.9214 278.969 91.3051L278.86 95.56C278.836 96.4611 277.727 96.874 277.12 96.2072L274.256 93.0583C273.998 92.7744 273.6 92.6633 273.232 92.7725L269.152 93.9833C268.287 94.2397 267.552 93.3118 267.999 92.5289L270.108 88.8323C270.299 88.4989 270.281 88.086 270.064 87.7698L267.651 84.2632C267.14 83.5206 267.796 82.5342 268.678 82.7172L272.846 83.5814C273.222 83.6594 273.609 83.5153 273.842 83.2106L276.432 79.8326Z" fill="url(#paint1_linear_0_258)"/>
<path d="M208.906 8.691C209.138 7.82005 210.314 7.67686 210.748 8.46657L212.8 12.1955C212.985 12.5318 213.347 12.7325 213.73 12.712L217.98 12.4843C218.88 12.4361 219.38 13.5097 218.763 14.1671L215.851 17.2711C215.588 17.551 215.509 17.9566 215.647 18.3148L217.177 22.2866C217.501 23.1277 216.634 23.9345 215.818 23.5511L211.966 21.7405C211.619 21.5772 211.208 21.6271 210.91 21.869L207.606 24.5515C206.906 25.1196 205.871 24.5445 205.983 23.6502L206.515 19.4272C206.563 19.0463 206.389 18.6716 206.066 18.463L202.494 16.1489C201.738 15.6589 201.965 14.4967 202.85 14.3274L207.031 13.5281C207.408 13.456 207.71 13.1745 207.809 12.8036L208.906 8.691Z" fill="url(#paint2_linear_0_258)"/>
<path d="M22.1446 183.625C21.5962 182.91 20.4556 183.228 20.3569 184.124L19.667 190.388C19.625 190.769 19.3683 191.093 19.0064 191.221L13.065 193.322C12.2151 193.622 12.1654 194.805 12.987 195.176L18.7312 197.768C19.0811 197.926 19.3098 198.27 19.3196 198.654L19.4816 204.954C19.5048 205.855 20.6146 206.268 21.2211 205.601L25.4611 200.939C25.7194 200.655 26.1174 200.544 26.4854 200.653L32.5269 202.445C33.391 202.702 34.1266 201.774 33.6798 200.991L30.5561 195.518C30.3659 195.185 30.3832 194.772 30.6008 194.455L34.1727 189.264C34.6836 188.521 34.0284 187.535 33.1458 187.718L26.9752 188.997C26.5993 189.075 26.212 188.931 25.9785 188.626L22.1446 183.625Z" fill="url(#paint3_linear_0_258)"/>
<path d="M10.568 79.8326C10.0196 79.1172 8.87909 79.4355 8.78041 80.3315L8.31442 84.5623C8.2724 84.9438 8.01568 85.2676 7.65379 85.3956L3.64092 86.8145C2.79109 87.1149 2.74137 88.298 3.563 88.6688L7.44267 90.4193C7.79256 90.5772 8.0212 90.9214 8.03106 91.3051L8.14045 95.56C8.16361 96.4611 9.27344 96.874 9.87992 96.2072L12.7437 93.0583C13.0019 92.7744 13.4 92.6633 13.768 92.7725L17.8484 93.9833C18.7126 94.2397 19.4482 93.3118 19.0014 92.5289L16.8916 88.8323C16.7014 88.4989 16.7187 88.086 16.9363 87.7698L19.3488 84.2632C19.8597 83.5206 19.2045 82.5342 18.3219 82.7172L14.1542 83.5814C13.7783 83.6594 13.391 83.5153 13.1575 83.2106L10.568 79.8326Z" fill="url(#paint4_linear_0_258)"/>
<path d="M78.0942 8.691C77.8619 7.82005 76.6864 7.67686 76.2518 8.46657L74.1997 12.1955C74.0147 12.5318 73.6534 12.7325 73.2701 12.712L69.0199 12.4843C68.1198 12.4361 67.6204 13.5097 68.2372 14.1671L71.1495 17.2711C71.4121 17.551 71.4914 17.9566 71.3534 18.3148L69.8234 22.2866C69.4994 23.1277 70.3662 23.9345 71.182 23.5511L75.034 21.7405C75.3814 21.5772 75.7916 21.6271 76.0896 21.869L79.3943 24.5515C80.0942 25.1196 81.1293 24.5445 81.0167 23.6502L80.485 19.4272C80.4371 19.0463 80.6114 18.6716 80.9335 18.463L84.5059 16.1489C85.2624 15.6589 85.0354 14.4967 84.15 14.3274L79.9694 13.5281C79.5924 13.456 79.2899 13.1745 79.191 12.8036L78.0942 8.691Z" fill="url(#paint5_linear_0_258)"/>
<circle cx="143.5" cy="2.5" r="2.5" fill="url(#paint6_linear_0_258)"/>
<circle cx="268.5" cy="138.5" r="2.5" fill="url(#paint7_linear_0_258)"/>
<circle r="2.5" transform="matrix(-1 0 0 1 14.5 138.5)" fill="url(#paint8_linear_0_258)"/>
<circle cx="254.5" cy="42.5" r="2.5" fill="url(#paint9_linear_0_258)"/>
<circle r="2.5" transform="matrix(-1 0 0 1 32.5 42.5)" fill="url(#paint10_linear_0_258)"/>
<defs>
<linearGradient id="paint0_linear_0_258" x1="252.367" y1="177.74" x2="272.919" y2="211.717" gradientUnits="userSpaceOnUse">
<stop stop-color="#C17304"/>
<stop offset="0.484375" stop-color="#FABA1C"/>
<stop offset="1" stop-color="#BD6D00"/>
</linearGradient>
<linearGradient id="paint1_linear_0_258" x1="266.984" y1="74.7967" x2="283.074" y2="101.395" gradientUnits="userSpaceOnUse">
<stop stop-color="#C17304"/>
<stop offset="0.484375" stop-color="#FABA1C"/>
<stop offset="1" stop-color="#BD6D00"/>
</linearGradient>
<linearGradient id="paint2_linear_0_258" x1="198.249" y1="7.66125" x2="223.305" y2="26.0606" gradientUnits="userSpaceOnUse">
<stop stop-color="#C17304"/>
<stop offset="0.484375" stop-color="#FABA1C"/>
<stop offset="1" stop-color="#BD6D00"/>
</linearGradient>
<linearGradient id="paint3_linear_0_258" x1="34.6334" y1="177.74" x2="14.0807" y2="211.717" gradientUnits="userSpaceOnUse">
<stop stop-color="#C17304"/>
<stop offset="0.484375" stop-color="#FABA1C"/>
<stop offset="1" stop-color="#BD6D00"/>
</linearGradient>
<linearGradient id="paint4_linear_0_258" x1="20.0159" y1="74.7967" x2="3.9263" y2="101.395" gradientUnits="userSpaceOnUse">
<stop stop-color="#C17304"/>
<stop offset="0.484375" stop-color="#FABA1C"/>
<stop offset="1" stop-color="#BD6D00"/>
</linearGradient>
<linearGradient id="paint5_linear_0_258" x1="88.7507" y1="7.66125" x2="63.6945" y2="26.0606" gradientUnits="userSpaceOnUse">
<stop stop-color="#C17304"/>
<stop offset="0.484375" stop-color="#FABA1C"/>
<stop offset="1" stop-color="#BD6D00"/>
</linearGradient>
<linearGradient id="paint6_linear_0_258" x1="140.822" y1="-2.7142e-08" x2="146.151" y2="5.01016" gradientUnits="userSpaceOnUse">
<stop stop-color="#C17304"/>
<stop offset="0.484375" stop-color="#FABA1C"/>
<stop offset="1" stop-color="#BD6D00"/>
</linearGradient>
<linearGradient id="paint7_linear_0_258" x1="265.822" y1="136" x2="271.151" y2="141.01" gradientUnits="userSpaceOnUse">
<stop stop-color="#C17304"/>
<stop offset="0.484375" stop-color="#FABA1C"/>
<stop offset="1" stop-color="#BD6D00"/>
</linearGradient>
<linearGradient id="paint8_linear_0_258" x1="-0.177936" y1="-2.7142e-08" x2="5.15059" y2="5.01016" gradientUnits="userSpaceOnUse">
<stop stop-color="#C17304"/>
<stop offset="0.484375" stop-color="#FABA1C"/>
<stop offset="1" stop-color="#BD6D00"/>
</linearGradient>
<linearGradient id="paint9_linear_0_258" x1="251.822" y1="40" x2="257.151" y2="45.0102" gradientUnits="userSpaceOnUse">
<stop stop-color="#C17304"/>
<stop offset="0.484375" stop-color="#FABA1C"/>
<stop offset="1" stop-color="#BD6D00"/>
</linearGradient>
<linearGradient id="paint10_linear_0_258" x1="-0.177936" y1="-2.7142e-08" x2="5.15059" y2="5.01016" gradientUnits="userSpaceOnUse">
<stop stop-color="#C17304"/>
<stop offset="0.484375" stop-color="#FABA1C"/>
<stop offset="1" stop-color="#BD6D00"/>
</linearGradient>
</defs>
</svg>
