<svg id="SvgjsSvg1865" width="288" height="288" xmlns="http://www.w3.org/2000/svg" version="1.1" xmlns:xlink="http://www.w3.org/1999/xlink" xmlns:svgjs="http://svgjs.com/svgjs"><defs id="SvgjsDefs1866"></defs><g id="SvgjsG1867"><svg xmlns="http://www.w3.org/2000/svg" width="288" height="288" viewBox="0 0 21.824 21.824"><defs><linearGradient id="a" x1=".5" x2=".5" y2="1" gradientUnits="objectBoundingBox"><stop offset="0" stop-color="#f8df00" class="stopColorf8df00 svgShape"></stop><stop offset=".14" stop-color="#fce800" class="stopColorfce800 svgShape"></stop><stop offset=".303" stop-color="#ffef00" class="stopColorffef00 svgShape"></stop><stop offset="1" stop-color="#9900f0" class="stopColorf3a700 svgShape"></stop></linearGradient><linearGradient id="c" x1=".5" x2=".5" y1="1.832" y2=".379" gradientUnits="objectBoundingBox"><stop offset="0" stop-color="#9900f0" class="stopColorf87758 svgShape"></stop><stop offset="1" stop-color="#000000" class="stopColor000000 svgShape"></stop></linearGradient><linearGradient id="d" x1=".5" x2=".5" y1="1" y2="-.229" gradientUnits="objectBoundingBox"><stop offset="0" stop-color="#ffe100" class="stopColorffe100 svgShape"></stop><stop offset=".168" stop-color="#fcd600" class="stopColorfcd600 svgShape"></stop><stop offset=".698" stop-color="#f7b900" class="stopColorf7b900 svgShape"></stop><stop offset="1" stop-color="#9900f0" class="stopColorf5ae00 svgShape"></stop></linearGradient><linearGradient id="f" x1=".5" x2=".5" y1="1" gradientUnits="objectBoundingBox"><stop offset="0" stop-color="#9900f0" class="stopColoree9b00 svgShape"></stop><stop offset=".612" stop-color="#f2b500" class="stopColorf2b500 svgShape"></stop><stop offset="1" stop-color="#f5c000" class="stopColorf5c000 svgShape"></stop></linearGradient><linearGradient id="g" x1=".5" x2=".5" y2="1.746" gradientUnits="objectBoundingBox"><stop offset="0" stop-color="#ffef00" class="stopColorffef00 svgShape"></stop><stop offset=".727" stop-color="#fac800" class="stopColorfac800 svgShape"></stop><stop offset="1" stop-color="#f7cf00" class="stopColorf7cf00 svgShape"></stop></linearGradient><linearGradient id="i" x1=".5" x2=".5" y1="1.808" y2=".673" gradientUnits="objectBoundingBox"><stop offset="0" stop-color="#fffab0" class="stopColorfffab0 svgShape"></stop><stop offset="1" stop-color="#000000" class="stopColor000000 svgShape"></stop></linearGradient><radialGradient id="b" cx=".495" cy="-.071" r=".4" gradientUnits="objectBoundingBox"><stop offset="0" stop-color="#fff77d" class="stopColorfff77d svgShape"></stop><stop offset="1" stop-color="#000000" class="stopColor000000 svgShape"></stop></radialGradient><radialGradient id="e" cx=".505" cy=".069" r="1.005" gradientUnits="objectBoundingBox"><stop offset="0" stop-color="#9900f0" class="stopColorf87758 svgShape"></stop><stop offset=".309" stop-color="#9900f0" class="stopColoreb694a svgShape"></stop><stop offset="1" stop-color="#9900f0" class="stopColorfda08a svgShape"></stop></radialGradient><radialGradient id="h" cx=".491" cy="-.206" r=".883" gradientTransform="matrix(.955 0 0 1 .022 0)" gradientUnits="objectBoundingBox"><stop offset="0" stop-color="#fff66e" class="stopColorfff66e svgShape"></stop><stop offset="1" stop-color="#000000" class="stopColor000000 svgShape"></stop></radialGradient></defs><circle cx="10.912" cy="10.912" r="10.912" fill="url(#a)" data-name="Ellipse 46"></circle><path fill="#fdf356" d="M214.162,196.793a10.911,10.911,0,0,1-10.91-10.748c0,.055,0,.109,0,.164a10.912,10.912,0,0,0,21.824,0c0-.055,0-.109,0-.164A10.912,10.912,0,0,1,214.162,196.793Z" data-name="Path 12815" opacity=".3" transform="translate(-203.25 -175.297)" class="colorfdf356 svgShape"></path><path fill="#fdf356" d="M214.162,91.16a10.912,10.912,0,0,1,10.91,10.707c0-.068,0-.137,0-.205a10.912,10.912,0,1,0-21.824,0c0,.069,0,.137,0,.205A10.912,10.912,0,0,1,214.162,91.16Z" data-name="Path 12816" transform="translate(-203.25 -90.75)" class="colorfdf356 svgShape"></path><circle style="mix-blend-mode:screen;isolation:isolate" cx="10.861" cy="10.861" r="10.861" fill="url(#b)" data-name="Ellipse 47" transform="translate(.051 .051)"></circle><path style="mix-blend-mode:screen;isolation:isolate" fill="url(#c)" d="M214.562,91.113A10.865,10.865,0,0,0,203.7,101.684c1.2.712,3.09.142,4.326-.476a7.282,7.282,0,0,1,3.513-.245c2.859.245,5.637,1.471,8.5.735.572-.163,1.389-.9,1.961-.409a3.2,3.2,0,0,0,3.427.4A10.865,10.865,0,0,0,214.562,91.113Z" data-name="Path 12817" opacity=".7" transform="translate(-203.65 -91.072)"></path><circle cx="8.451" cy="8.451" r="8.451" fill="url(#d)" data-name="Ellipse 48" transform="translate(2.461 2.461)"></circle><circle cx="8.041" cy="8.041" r="8.041" fill="#9900f0" data-name="Ellipse 49" transform="translate(2.872 2.872)" class="coloree9b00 svgShape"></circle><circle cx="7.712" cy="7.712" r="7.712" fill="url(#e)" data-name="Ellipse 50" transform="translate(3.2 3.2)"></circle><path fill="#fdf356" d="M239.332,193.024a7.573,7.573,0,0,1-7.71-7.343q0,.1,0,.205a7.712,7.712,0,0,0,15.425,0q0-.1,0-.205A7.573,7.573,0,0,1,239.332,193.024Z" data-name="Path 12818" opacity=".25" transform="translate(-228.42 -174.974)" class="colorfdf356 svgShape"></path><path fill="#fdf356" d="M266.621,150.519h0a.679.679,0,0,0-.552-.465l-2.528-.367-1.13-2.29a.683.683,0,0,0-1.225,0l-1.13,2.291-2.528.367a.683.683,0,0,0-.379,1.165L258.978,153l-.432,2.518a.679.679,0,0,0,.272.668.69.69,0,0,0,.719.052l2.261-1.189,2.261,1.189a.683.683,0,0,0,.992-.72L264.619,153l1.829-1.783A.679.679,0,0,0,266.621,150.519Z" data-name="Path 12819" opacity=".1" transform="translate(-250.886 -140.669)" class="colorfdf356 svgShape"></path><path style="mix-blend-mode:multiply;isolation:isolate" fill="url(#f)" d="M267.757,151.132a.516.516,0,0,0-.419-.353l-2.613-.38-1.169-2.368h0a.519.519,0,0,0-.931,0l-1.169,2.368-2.613.38a.519.519,0,0,0-.288.885l1.727,1.761-.446,2.6a.567.567,0,0,0,.205.539.769.769,0,0,0,.712.091l2.337-1.229,2.337,1.229a.67.67,0,0,0,.63-.022.755.755,0,0,0,.287-.607l-.446-2.6,1.727-1.761A.516.516,0,0,0,267.757,151.132Z" data-name="Path 12820" opacity=".6" transform="translate(-252.178 -141.314)"></path><path style="mix-blend-mode:multiply;isolation:isolate" fill="#9900f0" d="M267.757,146.768a.516.516,0,0,0-.419-.353l-2.613-.38-1.169-2.368h0a.519.519,0,0,0-.931,0l-1.169,2.368-2.613.38a.519.519,0,0,0-.288.885l1.891,1.843-.446,2.6a.519.519,0,0,0,.753.547l2.337-1.229,2.337,1.229a.519.519,0,0,0,.753-.547l-.446-2.6,1.891-1.843A.516.516,0,0,0,267.757,146.768Z" data-name="Path 12821" opacity=".15" transform="translate(-252.178 -137.442)" class="coloree9b00 svgShape"></path><path fill="url(#g)" d="M264.413,146.144l1.2,2.426,2.677.389a.4.4,0,0,1,.219.675l-1.937,1.888.457,2.666a.4.4,0,0,1-.575.418l-2.395-1.259-2.395,1.259a.4.4,0,0,1-.575-.418l.457-2.666-1.937-1.888a.4.4,0,0,1,.219-.675l2.677-.389,1.2-2.426A.4.4,0,0,1,264.413,146.144Z" data-name="Path 12822" transform="translate(-253.146 -139.701)"></path><path fill="#fdf356" d="M274.05,197.441l-.421,2.455a.4.4,0,0,0,.011.182l.446-2.6Z" data-name="Path 12823" opacity=".3" transform="translate(-265.686 -185.408)" class="colorfdf356 svgShape"></path><path fill="#fdf356" d="M259.834,149.205l2.841-.389,1.2-2.426c.145-.294.237-.294.382,0l1.2,2.426,2.841.389a.392.392,0,0,1,.32.269.4.4,0,0,0-.32-.515l-2.677-.389-1.2-2.426a.4.4,0,0,0-.71,0l-1.2,2.426-2.677.389a.4.4,0,0,0-.319.515A.391.391,0,0,1,259.834,149.205Z" data-name="Path 12824" transform="translate(-253.152 -139.701)" class="colorfdf356 svgShape"></path><path fill="#fdf356" d="M322.307,197.441l-.036.035.446,2.6a.394.394,0,0,0,.011-.182Z" data-name="Path 12825" opacity=".3" transform="translate(-308.847 -185.408)" class="colorfdf356 svgShape"></path><path style="mix-blend-mode:screen;isolation:isolate" fill="url(#h)" d="M264.413,146.144l1.2,2.426,2.677.389a.4.4,0,0,1,.219.675l-1.937,1.888.457,2.666a.4.4,0,0,1-.575.418l-2.395-1.259-2.395,1.259a.4.4,0,0,1-.575-.418l.457-2.666-1.937-1.888a.4.4,0,0,1,.219-.675l2.677-.389,1.2-2.426A.4.4,0,0,1,264.413,146.144Z" data-name="Path 12826" transform="translate(-253.146 -139.701)"></path><path style="mix-blend-mode:screen;isolation:isolate" fill="url(#i)" d="M268.642,148.959l-2.677-.389-1.2-2.426a.4.4,0,0,0-.71,0l-1.2,2.426-2.677.389a.389.389,0,0,0-.294.21,3.7,3.7,0,0,0,1.024.889c1.7.957,5.935.793,7.111-.164a3.075,3.075,0,0,0,.86-.805A.389.389,0,0,0,268.642,148.959Z" data-name="Path 12827" transform="translate(-253.5 -139.701)"></path></svg></g></svg>