<svg xmlns="http://www.w3.org/2000/svg" width="26" height="26" viewBox="0 0 26 26"><path d="M 13 0 C 5.8262901 0 9.8137284e-005 5.8263 0 13 C -7.4033404e-005 20.1739 5.8261687 26 13 26 C 20.173831 26 26.000074 20.1739 26 13 C 25.999902 5.8263 20.17371 0 13 0 z M 13 1.0019531 C 19.633243 1.0019531 24.999909 6.3668 25 13 C 25.000068 19.6334 19.633355 25 13 25 C 6.3666446 25 0.99993154 19.6334 1 13 C 1.0000907 6.3668 6.3667575 1.0019531 13 1.0019531 z M 12.96875 6.0019531 L 12.96875 6.0078125 L 12.953125 6.0078125 C 12.881865 6.0078125 12.672509 5.9918125 12.449219 6.0078125 L 11.986328 6.0410156 L 11.986328 8.4902344 C 11.989528 9.7053344 11.134253 10.711759 9.9863281 10.943359 L 9.9863281 10.501953 A 0.50004994 0.50004994 0 0 0 9.4863281 10.001953 L 6.4863281 10.001953 A 0.50004994 0.50004994 0 0 0 5.9863281 10.501953 L 5.9863281 19.501953 A 0.50004994 0.50004994 0 0 0 6.4863281 20.001953 L 9.4863281 20.001953 A 0.50004994 0.50004994 0 0 0 9.9863281 19.501953 L 9.9863281 18.716797 C 10.282231 18.890397 10.620595 18.996094 10.986328 18.996094 L 16.986328 18.996094 C 17.540981 18.996094 18.021772 18.741812 18.34375 18.382812 C 18.665728 18.023813 18.856054 17.575787 18.970703 17.117188 L 19.970703 13.117188 C 20.120737 12.517087 19.857151 11.942925 19.462891 11.578125 C 19.06863 11.213225 18.540981 10.996094 17.986328 10.996094 L 14.986328 10.996094 L 14.986328 7.9960938 C 14.986328 7.5216937 14.907408 7.0198875 14.572266 6.6171875 C 14.237118 6.2144875 13.680857 6.0019531 12.986328 6.0019531 L 12.96875 6.0019531 z M 12.986328 6.9980469 C 13.4978 6.9980469 13.691336 7.1177062 13.804688 7.2539062 C 13.918041 7.3901062 13.986328 7.6356875 13.986328 7.9921875 L 13.986328 10.992188 L 13.988281 11.992188 L 17.986328 11.992188 C 18.262685 11.992188 18.584821 12.123041 18.783203 12.306641 C 18.981585 12.490241 19.053459 12.665094 19.001953 12.871094 L 18.001953 16.871094 C 17.915053 17.218694 17.769501 17.521438 17.599609 17.710938 C 17.429718 17.900337 17.262685 17.992188 16.986328 17.992188 L 10.986328 17.992188 C 10.423666 17.992188 9.9863281 17.554887 9.9863281 16.992188 L 9.9863281 16.039062 L 9.9863281 11.941406 C 11.68204 11.694506 12.991006 10.239122 12.986328 8.4824219 L 12.986328 6.9980469 z M 6.9863281 10.998047 L 8.9863281 10.998047 L 8.9863281 16.039062 L 8.9863281 16.992188 L 8.9863281 18.998047 L 6.9863281 18.998047 L 6.9863281 10.998047 z " color="#000" font-family="sans-serif" font-weight="400" overflow="visible" style="line-height:normal;text-indent:0;text-align:start;text-decoration-line:none;text-decoration-style:solid;text-decoration-color:#000;text-transform:none;block-progression:tb;isolation:auto;mix-blend-mode:normal"/></svg>