<svg id="SvgjsSvg1922" width="288" height="288" xmlns="http://www.w3.org/2000/svg" version="1.1" xmlns:xlink="http://www.w3.org/1999/xlink" xmlns:svgjs="http://svgjs.com/svgjs"><defs id="SvgjsDefs1923"></defs><g id="SvgjsG1924"><svg xmlns="http://www.w3.org/2000/svg" width="288" height="288" viewBox="0 0 59.054 70.865"><path fill="#9900f0" d="M56.149,0H8.905V5.905H56.149ZM8.905,70.865H56.149V64.96H8.905ZM56.149,11.811H8.905A5.923,5.923,0,0,0,3,17.716V53.149a5.923,5.923,0,0,0,5.905,5.905H56.149a5.923,5.923,0,0,0,5.905-5.905V17.716A5.923,5.923,0,0,0,56.149,11.811Zm-23.622,8.12a6.644,6.644,0,1,1-6.644,6.644A6.654,6.654,0,0,1,32.527,19.931ZM47.291,50.2H17.764V45.767c0-4.931,9.833-7.382,14.764-7.382s14.764,2.451,14.764,7.382Z" transform="translate(-3)" class="colorf98064 svgShape"></path></svg></g></svg>