<svg xmlns="http://www.w3.org/2000/svg" enable-background="new 0 0 100 100" viewBox="0 0 100 100"><path d="M72,5H28c-4.4,0-8,3.6-8,8v74c0,4.4,3.6,8,8,8h44c4.4,0,8-3.6,8-8V13C80,8.6,76.4,5,72,5z M66,75H34V29h32V75z M68,25H32
	c-1.1,0-2,0.9-2,2v48h-6V19h52v56h-6V27C70,25.9,69.1,25,68,25z M28,9h44c2.2,0,4,1.8,4,4v2H24v-2C24,10.8,25.8,9,28,9z M72,91H28
	c-2.2,0-4-1.8-4-4v-8h8h36h8v8C76,89.2,74.2,91,72,91z M52,85c0,1.1-0.9,2-2,2s-2-0.9-2-2c0-1.1,0.9-2,2-2S52,83.9,52,85z M44,37
	c0-1.1,0.9-2,2-2h8c1.1,0,2,0.9,2,2s-0.9,2-2,2h-8C44.9,39,44,38.1,44,37z M40,47c0-1.1,0.9-2,2-2h16c1.1,0,2,0.9,2,2s-0.9,2-2,2H42
	C40.9,49,40,48.1,40,47z M40,57c0-1.1,0.9-2,2-2h16c1.1,0,2,0.9,2,2s-0.9,2-2,2H42C40.9,59,40,58.1,40,57z M40,67c0-1.1,0.9-2,2-2
	h16c1.1,0,2,0.9,2,2s-0.9,2-2,2H42C40.9,69,40,68.1,40,67z"/></svg>