<svg id="SvgjsSvg2027" width="288" height="288" xmlns="http://www.w3.org/2000/svg" version="1.1" xmlns:xlink="http://www.w3.org/1999/xlink" xmlns:svgjs="http://svgjs.com/svgjs"><defs id="SvgjsDefs2028"></defs><g id="SvgjsG2029"><svg xmlns="http://www.w3.org/2000/svg" width="288" height="288" viewBox="0 0 166 166"><g transform="translate(-303 -1102.922)" fill="#000000" class="color000 svgShape"><rect width="166" height="166" fill="#ffffff" data-name="Rectangle 556" rx="24" transform="translate(303 1102.922)" class="colorfff svgShape"></rect><path fill="#9900f0" d="M70.246,37.1C70.246,57.464,56.3,71.96,35.7,71.96a35.7,35.7,0,1,1,0-71.4A34.33,34.33,0,0,1,59.637,9.9L49.92,19.247C37.21,6.982,13.574,16.2,13.574,36.261A22.362,22.362,0,0,0,35.7,58.8c14.135,0,19.433-10.134,20.268-15.388H35.7V31.137H69.684A31.3,31.3,0,0,1,70.246,37.1Z" data-name="Icon awesome-google" transform="translate(351.007 1149.354)" class="colorf87758 svgShape"></path></g></svg></g></svg>