<?xml version="1.0" encoding="UTF-8" standalone="no"?>
<svg
   xmlns:dc="http://purl.org/dc/elements/1.1/"
   xmlns:cc="http://creativecommons.org/ns#"
   xmlns:rdf="http://www.w3.org/1999/02/22-rdf-syntax-ns#"
   xmlns:svg="http://www.w3.org/2000/svg"
   xmlns="http://www.w3.org/2000/svg"
   viewBox="0 0 546.65198 510.14133"
   height="305.484931093"
   width="327.348388813"
   xml:space="preserve"
   id="svg2"
   version="1.1"><metadata
     id="metadata8"><rdf:RDF><cc:Work
         rdf:about=""><dc:format>image/svg+xml</dc:format><dc:type
           rdf:resource="http://purl.org/dc/dcmitype/StillImage" /></cc:Work></rdf:RDF></metadata><defs
     id="defs6"><clipPath
       id="clipPath18"
       clipPathUnits="userSpaceOnUse"><path
         id="path16"
         d="M 0,382.606 H 409.989 V 0 H 0 Z" /></clipPath></defs><g
     transform="matrix(1.3333333,0,0,-1.3333333,0,510.14133)"
     id="g10"><g
       id="g12"><g
         clip-path="url(#clipPath18)"
         id="g14"><g
           transform="translate(404.2236,184.0782)"
           id="g20"><path
             id="path22"
             style="fill:#fccb06;fill-opacity:1;fill-rule:nonzero;stroke:none"
             d="m 0,0 c -0.038,3.205 -1.238,6.361 -2.963,9.799 l -0.459,0.888 -0.004,-0.002 -0.01,-0.001 0.012,0.005 -0.46,0.89 C -12.88,28.545 -24.639,46.21 -28.015,50.353 l -0.047,0.057 -0.037,0.061 c -0.727,1.246 -1.493,3.668 -1.788,6.449 -0.356,2.969 -0.243,5.951 -0.409,7.561 -0.2,1.379 -0.913,2.318 -1.942,3.777 -1.008,1.37 -2.289,2.953 -3.597,4.788 -1.892,2.65 -3.913,5.522 -5.518,7.833 -0.791,1.139 -1.503,2.176 -2.031,2.958 -0.546,0.816 -0.826,1.221 -0.944,1.444 -0.734,1.295 -1.444,2.212 -1.75,2.906 -0.042,0.095 -0.086,0.188 -0.126,0.282 l -0.127,0.291 0.063,0.308 c 0.232,1.143 0.521,3.04 0.523,5.415 0,0.063 -0.002,0.076 -0.002,0.16 0,0.046 -0.002,0.103 -0.002,0.173 -0.019,6.612 -2.661,17.024 -14.726,23.901 -2.956,1.698 -5.599,3.285 -7.967,4.765 l -1.078,0.678 0.909,0.887 c 2.233,2.18 3.576,5.337 3.582,8.539 0,0.053 0,0.013 -0.002,0.122 l 0.002,0.034 v 0.015 c -0.002,3.441 -1.434,6.621 -3.736,8.841 L -69.204,143 c -33.402,32.619 -79.335,52.822 -129.92,52.822 l 0.041,0.002 c -0.079,-0.004 -0.081,-0.002 -0.135,-0.004 l -0.058,0.002 h -0.044 c -50.597,0 -96.523,-20.203 -130.111,-52.992 l -0.105,-0.091 c -2.429,-2.346 -3.884,-5.511 -3.888,-8.954 v -0.092 l -0.001,-0.186 c 0.035,-2.281 0.727,-4.488 1.924,-6.368 l 0.585,-0.922 -0.969,-0.502 c -1.489,-0.773 -3.427,-1.817 -5.322,-3 -3.135,-2.003 -6.142,-4.168 -7.355,-6.798 -1.014,-2.33 -0.944,-3.396 -1.787,-5.577 -0.759,-1.998 -2.121,-4.623 -3.393,-6.955 -1.279,-2.355 -2.439,-4.354 -2.893,-5.352 -0.565,-1.292 -0.677,-2.772 -0.687,-4.351 0,-1.746 0.19,-3.488 0.346,-4.614 l 0.082,-0.592 -0.487,-0.354 c -3.823,-2.786 -12.067,-10.41 -12.096,-24.349 0,-1.438 0.088,-2.937 0.278,-4.495 l 0.053,-0.418 -0.264,-0.327 c -4.499,-5.616 -23.952,-30.176 -29.915,-45.382 -0.343,-0.905 -1.069,-1.737 -1.779,-3.184 -0.7,-1.406 -1.343,-3.232 -1.352,-5.571 V 4.264 c -0.002,-0.084 -0.002,-0.171 -0.002,-0.262 0.015,-2.9 0.945,-5.912 4.255,-9.014 l 1.189,-1.055 0.222,-0.168 c 0.187,-0.123 0.258,-0.2 0.543,-0.4 0.309,-0.223 0.789,-0.554 1.546,-1.018 4.491,-2.752 13.941,-9.536 18.54,-19.982 l 0.015,-0.032 0.012,-0.036 c 0.034,-0.095 0.087,-0.239 0.137,-0.356 0.24,-0.452 0.205,-0.538 0.683,-0.993 0.397,-0.263 0.166,-0.127 0.485,-0.245 0.404,-0.11 0.743,-0.146 1.335,-0.226 1.525,-0.186 3.684,-0.353 4.191,-0.394 l 0.264,0.003 c 0.217,0.035 0.409,0.089 0.603,0.164 l 0.639,0.242 0.458,-0.507 c 0.171,-0.193 0.307,-0.35 0.453,-0.494 2.178,-2.154 6.121,-4.35 13.079,-4.517 h 0.025 c 0.03,0 0.059,0.027 0.059,0.051 l 0.002,0.011 c 0,0.025 -0.027,0.058 -0.044,0.058 l -1.115,0.617 c -1.22,0.938 -3.247,3.235 -5.445,8.825 l -0.322,0.825 0.78,0.42 c 4.514,2.437 11.057,5.437 18.652,7.316 l 0.349,0.087 0.325,-0.159 c 2.096,-1.025 4.057,-2.185 5.265,-3.614 l 0.38,-0.455 -0.215,-0.553 c 0.002,-0.004 -0.542,-1.37 -1.099,-3.701 -0.557,-2.333 -1.113,-5.592 -1.113,-9.267 0,-2.258 0.208,-4.67 0.755,-7.124 l 0.143,-0.646 -0.542,-0.387 c 0,-10e-4 -0.257,-0.181 -0.704,-0.552 -0.449,-0.37 -1.071,-0.916 -1.748,-1.613 -1.358,-1.385 -2.925,-3.362 -3.804,-5.636 l -0.129,-0.333 -0.312,-0.178 c -0.303,-0.171 -0.606,-0.34 -0.9,-0.506 l -0.953,-0.535 -0.449,0.995 c -0.392,0.867 -0.759,1.734 -1.081,2.581 -1.294,3.375 -2.013,6.301 -2.257,7.355 l -0.01,0.006 -0.086,0.422 c -0.003,0.022 -0.027,0.045 -0.067,0.049 -0.02,-10e-4 -0.04,-0.013 -0.048,-0.035 -2.279,-4.611 -3.012,-8.642 -3.015,-11.906 v -0.013 c 0.003,-0.607 0.032,-1.185 0.078,-1.75 l 0.133,-1.605 -1.497,0.593 c -0.244,0.097 -0.506,0.158 -0.782,0.158 h -0.021 c -0.131,-0.002 -0.285,-0.011 -0.487,-0.053 -0.769,-0.126 -1.32,-0.757 -1.541,-1.164 -0.27,-0.491 -0.31,-0.75 -0.342,-0.864 l -0.008,-0.04 -10e-4,-0.009 -10e-4,-0.013 -0.002,-0.014 c -0.003,-0.012 -0.005,-0.025 -0.009,-0.04 -0.007,-0.035 -0.015,-0.084 -0.028,-0.15 -0.022,-0.133 -0.056,-0.324 -0.096,-0.575 -0.08,-0.497 -0.19,-1.218 -0.298,-2.101 -0.219,-1.76 -0.434,-4.166 -0.434,-6.707 0.061,-4.626 0.521,-9.937 3.911,-13.485 5.219,-5.212 14.357,-14.633 14.945,-15.236 l 0.011,-0.01 0.08,-0.081 c 0.143,-0.126 1.326,-1.235 3.403,-2.002 l 1.212,-0.443 -0.732,-1.065 c -1.364,-1.978 -2.146,-4.402 -2.15,-6.889 -0.002,-0.07 -0.002,-0.031 -0.002,-0.053 h -0.032 l 0.034,-0.061 c 0,-3.439 1.429,-6.62 3.738,-8.844 l 0.436,-0.403 c 28.817,-28.138 66.978,-47.032 109.401,-51.685 l 0.607,-0.066 0.217,-0.575 c 2.992,-7.898 10.622,-13.52 19.569,-13.518 8.927,-0.002 16.543,5.594 19.547,13.468 l 0.22,0.572 0.607,0.066 c 42.62,4.566 80.963,23.508 109.992,51.844 l 0.081,0.084 c 0.036,0.039 0.991,1.128 1.973,2.77 0.983,1.673 1.994,3.822 2.009,6.164 0,0.069 -0.002,0.065 -0.002,0.111 -0.053,2.435 -0.748,4.803 -2.028,6.79 l -0.721,1.121 1.277,0.379 c 2.383,0.708 3.96,1.998 4.871,3.123 0.299,0.374 0.454,0.672 0.75,1.227 0.93,1.795 2.377,5.155 3.926,8.477 1.546,3.32 3.191,6.568 4.293,7.873 1.319,1.695 5.095,4.339 5.192,8.766 0,0.164 -0.006,0.304 -0.011,0.405 -0.129,1.758 -0.812,3.428 -1.47,4.805 -0.324,0.675 -0.647,1.255 -0.885,1.676 -0.072,0.12 -0.133,0.227 -0.188,0.318 l -0.255,0.438 0.198,0.463 c 0.575,1.351 1.276,3.601 1.278,6.612 l -0.002,0.021 c 0,2.862 -0.648,6.393 -2.64,10.431 -0.005,0.016 -0.031,0.033 -0.047,0.035 l -0.016,-10e-4 c -0.018,0 -0.043,-0.021 -0.049,-0.046 l -10e-4,-0.007 c -0.003,-0.011 -0.005,-0.021 -0.009,-0.033 -0.004,-0.028 -0.013,-0.066 -0.024,-0.113 -0.02,-0.095 -0.05,-0.236 -0.092,-0.411 -0.084,-0.353 -0.209,-0.857 -0.375,-1.479 -0.338,-1.241 -0.852,-2.939 -1.561,-4.797 -0.593,-1.563 -1.335,-3.212 -2.21,-4.783 l -0.55,-0.988 -0.911,0.663 c -11.195,8.18 -12.437,21.456 -12.444,27.139 0.003,1.723 0.12,2.767 0.123,2.798 l 0.067,0.595 0.555,0.221 c 4.05,1.619 8.225,2.216 12.183,2.216 3.318,0 6.485,-0.418 9.321,-1.01 l 0.215,-0.045 0.179,-0.134 c 0.477,-0.357 0.959,-0.715 1.44,-1.063 0.247,-0.178 0.498,-0.35 0.751,-0.525 l 0.695,-0.479 -0.355,-0.767 c -1.46,-3.125 -2.881,-5.284 -4.093,-6.745 -1.008,-1.216 -1.866,-1.956 -2.47,-2.391 -0.302,-0.222 -0.55,-0.365 -0.71,-0.452 -0.082,-0.043 -0.147,-0.075 -0.181,-0.09 l -0.086,-0.039 c -0.012,-0.013 -0.018,-0.029 -0.018,-0.042 h -0.074 l 0.077,-0.016 c 0.004,-0.023 0.035,-0.049 0.063,-0.049 0,0.002 0,0.002 0.004,0.002 7.166,0.606 11.949,2.493 15.139,4.586 l 0.36,0.237 0.422,-0.102 c 0.43,-0.102 0.839,-0.17 1.261,-0.185 0.302,-0.026 0.593,-0.04 0.879,-0.042 0.07,0 0.058,0.002 0.131,0.002 l 0.013,0.002 c 2.588,0 5.264,1.088 7.285,3.382 7.358,8.265 18.717,15.94 23.45,21.01 1.688,1.807 2.629,3.994 2.829,6.247 h -0.04 z" /></g><g
           transform="translate(147.5659,78.6031)"
           id="g24"><path
             id="path26"
             style="fill:#1c4f9c;fill-opacity:1;fill-rule:nonzero;stroke:none"
             d="m 0,0 1.751,3.292 -12.523,6.658 -1.75,-3.29 4.464,-2.374 -13.419,-25.236 3.785,-2.011 13.417,25.234 z m 7.072,-17.779 1.396,3.456 -5.999,2.423 3.804,9.419 6.715,-2.715 1.397,3.456 -10.688,4.318 -12.103,-29.956 10.686,-4.319 1.398,3.457 -6.715,2.714 4.11,10.171 z m 15.527,4.156 c -0.842,-3.146 -2.453,-4.844 -5.499,-3.805 l 2.76,10.307 0.662,-0.178 c 3.169,-0.761 2.875,-3.345 2.077,-6.324 m -0.967,9.798 -4.968,1.331 -8.361,-31.208 4.137,-1.109 4.094,15.272 0.081,-0.022 1.538,-16.782 4.304,-1.153 -1.683,16.732 c 3.603,-0.299 5.668,3.937 6.456,6.876 2.096,7.824 -2.578,9.253 -5.598,10.063 m 20.395,-15.711 -0.783,-12.958 -0.098,-0.072 -4.049,25.364 -4.075,0.572 -4.497,-31.995 4.244,-0.596 1.652,11.754 0.872,10.824 0.037,2.116 0.097,0.073 4.004,-25.704 3.946,-0.553 4.496,31.993 -4.242,0.596 z M -71.367,105.899 c -2.51,7.895 -8.421,9.92 -8.421,9.92 6.592,-12.582 1.864,-21.09 1.864,-21.09 0,0 7.008,-0.828 11.356,2.793 3.443,10.504 -4.461,19.379 -4.461,19.379 1.039,-4.808 -0.338,-11.002 -0.338,-11.002 m 55.771,-92.741 -6.611,-9.442 -6.579,-11.19 -0.121,-0.02 7.906,24.437 -3.37,2.36 -18.53,-26.466 3.508,-2.459 6.808,9.724 5.692,9.25 0.995,1.867 0.118,0.02 -8.102,-24.717 3.265,-2.287 18.531,26.465 z m -15.182,11.851 -21.618,-24.01 3.182,-2.868 21.619,24.011 z m 225.894,89.969 c -0.139,-0.709 3.723,-1.577 8.638,-4.606 4.764,-2.936 10.479,-7.955 16.881,-13.514 0.57,-0.397 -0.081,-1.28 -0.251,-1.149 -16.94,13.144 -33.577,15.101 -33.388,12.922 0.076,-0.881 3.845,-0.903 8.569,-2.658 6.89,-2.56 16.294,-7.411 23.245,-12.442 0.485,-0.306 -0.065,-0.814 -0.355,-0.749 -19.588,6.91 -37.334,10.885 -37.106,8.492 0.096,-1.004 5.649,-1.121 12.472,-3.035 9.443,-2.651 21.818,-7.387 29.997,-10.485 0.241,0.075 1.362,-0.308 3.739,1.73 1.902,1.766 1.631,2.681 1.631,2.681 -18.434,20.027 -33.617,25.144 -34.072,22.813 M 57.087,-53.738 H 56.26 v 2.783 c 0.287,0.069 0.677,0.116 1.052,0.116 1.384,-0.036 1.793,-0.54 1.826,-1.422 -0.03,-1.097 -0.575,-1.433 -2.051,-1.477 m 2.299,-1.16 c 1.003,0.408 1.745,1.288 1.732,2.676 -0.004,1.876 -1.436,3.154 -3.816,3.158 -0.971,0 -1.971,-0.183 -2.866,-0.603 l -0.162,-0.075 v -9.956 h 1.986 v 4.228 l 0.55,-0.002 c 0.653,-0.016 0.934,-0.239 1.235,-0.839 l 1.62,-3.387 h 2.197 l -1.872,3.854 c -0.17,0.346 -0.362,0.67 -0.604,0.946 m 21.879,48.317 6.165,-31.716 4.205,0.819 -6.163,31.713 z m 52.237,14.35 7.76,-8.961 3.263,-3.451 -4.312,-2.798 -6.782,15.162 z m -4.808,4.335 11.703,-30.923 3.521,2.288 -2.423,5.935 5.389,3.5 4.438,-4.63 3.629,2.358 -23.418,23.316 z M -89.697,141.03 c -0.826,-16.938 13.289,-11.293 13.289,-11.293 -8.967,2.988 -13.289,11.293 -13.289,11.293 M 105.801,-30.022 c -3.22,-1.047 -5.428,4.228 -7.548,10.749 -2.118,6.518 -3.43,12.084 -0.211,13.13 3.219,1.047 5.428,-4.228 7.548,-10.749 2.118,-6.519 3.431,-12.086 0.211,-13.13 m -9.004,27.711 c -7.905,-2.569 -4.664,-12.825 -2.862,-18.367 1.8,-5.542 5.206,-15.745 13.112,-13.176 7.905,2.569 4.663,12.823 2.862,18.367 -1.801,5.543 -5.205,15.744 -13.112,13.176 M 57.438,-61.833 c -3.924,0.01 -7.093,3.176 -7.101,7.103 0.008,3.919 3.177,7.09 7.101,7.099 3.914,-0.009 7.089,-3.182 7.098,-7.099 -0.009,-3.922 -3.184,-7.093 -7.098,-7.103 m 0,16.102 c -4.974,0 -9.002,-4.028 -9.002,-8.999 0,-4.975 4.026,-9 9.002,-9 4.964,0 8.998,4.025 8.998,9 -0.002,4.971 -4.034,8.995 -8.998,8.999 m 20.689,38.613 -14.077,-1.73 0.454,-3.699 5.018,0.616 3.484,-28.368 4.253,0.523 -3.483,28.369 4.806,0.59 z m -17.94,-24.203 -5.141,-0.09 2.284,16.453 0.086,0.002 1.832,-11.709 z m -4.551,22.591 -6.464,-32.426 4.199,0.073 1.091,6.319 6.426,0.112 1.309,-6.276 4.327,0.075 -7.504,32.182 z m 104.69,8.719 -18.372,21.893 -3.281,-2.754 20.768,-24.75 8.796,7.382 -2.398,2.855 z m -268.924,92.668 c 0,0 -2.819,-2.275 -2.646,-3.296 0.337,-1.992 2.578,-0.69 3.158,-0.092 9.794,10.11 27.609,16.48 27.436,17.517 -0.173,1.037 -15.426,-3.384 -27.948,-14.129 M 111.959,63.299 H 18.756 v 12.375 h 4.156 c 4.563,0 8.18,3.765 8.18,8.328 l -0.082,80.047 c 0,4.571 -3.699,8.266 -8.27,8.266 h -3.906 v 9.375 h 54.092 v -9.445 L 68.6,172.237 c -4.567,0 -8.305,-3.781 -8.305,-8.348 L 60.256,78.335 h 27.012 c 3.678,0 7.033,3.559 6.697,7.288 -0.107,1.149 -0.224,2.825 -0.224,4.012 0,7.129 4.136,13.379 10.304,16.524 l 6.104,-6.106 c -3.182,-2.91 -5.18,-7.094 -5.18,-11.75 0,-5.489 2.781,-10.328 7.01,-13.188 z m -54.52,150.332 c -52.193,0 -94.502,-42.308 -94.502,-94.5 0,-52.192 42.309,-94.504 94.502,-94.504 52.19,0 94.499,42.312 94.499,94.504 0,52.192 -42.309,94.5 -94.499,94.5 m 195.355,-108.926 -0.002,-0.027 c -0.024,-0.223 -0.055,-0.442 -0.097,-0.657 l -3.421,2.79 -1.832,-1.832 c -8.539,7.32 -15.553,5.492 -15.553,5.492 l -8.541,-5.492 c 11.553,-0.71 14.196,-8.873 14.391,-15.564 -0.011,-0.009 -0.022,-0.019 -0.032,-0.028 -0.842,-0.714 -1.686,-1.442 -2.53,-2.185 -0.09,-0.079 -0.178,-0.16 -0.269,-0.24 -0.782,-0.692 -1.558,-1.396 -2.325,-2.108 -0.07,-0.067 -0.142,-0.131 -0.212,-0.198 -0.771,-0.721 -1.525,-1.454 -2.263,-2.194 -0.16,-0.16 -0.316,-0.32 -0.475,-0.482 -0.741,-0.755 -1.467,-1.515 -2.156,-2.285 -1.418,-1.561 -2.847,-2.085 -4.548,-2.105 -2.502,-0.032 -5.596,1.435 -8.567,3.359 -0.693,0.449 -1.38,0.913 -2.05,1.399 -3.612,2.562 -6.593,5.296 -8.875,6.258 -2.481,0.981 -8.707,2.533 -16.246,2.544 -0.473,0 -0.951,-0.007 -1.433,-0.021 -0.228,-0.006 -0.461,-0.019 -0.691,-0.028 -0.251,-0.011 -0.5,-0.018 -0.753,-0.033 -0.311,-0.017 -0.623,-0.042 -0.937,-0.066 -0.171,-0.012 -0.342,-0.022 -0.515,-0.038 -0.366,-0.031 -0.736,-0.07 -1.106,-0.11 -0.117,-0.014 -0.233,-0.024 -0.351,-0.038 -0.412,-0.048 -0.826,-0.105 -1.242,-0.165 -0.072,-0.011 -0.144,-0.02 -0.215,-0.03 -0.453,-0.069 -0.906,-0.146 -1.362,-0.229 -0.031,-0.006 -0.062,-0.011 -0.093,-0.017 -4.935,-0.913 -9.953,-2.741 -14.399,-6.051 0.509,1.559 0.988,3.134 1.428,4.722 6.182,3.044 16.298,6.188 30.268,4.64 0,0 -8.645,2.738 -21.739,1.949 l -2.234,2.664 c 0,0 -2.12,-1.062 -4.791,-3.17 0.256,1.172 0.496,2.351 0.715,3.537 3.281,2.073 6.812,2.958 6.812,2.958 l 2.436,7.929 c -0.739,0.063 -3.543,1.437 -7.539,3.585 0.074,1.412 0.116,2.832 0.137,4.257 5.544,-2.429 10.149,-4.485 11.978,-5.4 0,0 -1.826,5.793 8.541,7.015 0,0 -9.582,1.625 -20.563,3.79 -0.026,0.817 -0.057,1.632 -0.101,2.443 13.764,-1.689 27.452,-1.127 35.912,5.052 0,0 -7.318,-1.527 -15.555,-0.918 0,0 7.932,2.442 14.334,10.067 0,0 -7.316,-3.658 -18.299,-2.742 0,0 10.983,5.486 14.334,10.365 0,0 -13.109,-5.182 -22.259,-5.182 0,0 8.541,3.352 12.197,7.014 l -11.192,-0.929 3.012,4.572 c 0,0 -14.695,4.287 -17.742,16.486 l 5.414,-0.662 c 0,0 -4.488,16.417 5.196,21.141 -1.24,1.24 -9.92,3.72 -9.92,3.72 0,0 10.068,0.651 14.644,-1.181 0,0 -0.826,1.595 -3.07,3.248 -2.244,1.653 -5.254,2.706 -5.254,2.706 0,0 11.285,0.612 14.64,-2.744 0,0 -3.355,6.098 -6.095,8.235 0,0 6.711,-2.137 10.672,-6.709 l 2.746,0.302 c 0,0 -0.61,6.407 -3.66,11.59 0,0 6.097,-4.574 8.843,-11.892 0,0 2.196,-3.051 8.072,-2.427 l -0.115,-0.385 0.179,-0.453 c 0.017,-0.038 0.873,-2.22 2.295,-4.751 1.358,-2.37 3.128,-5.066 5.476,-6.639 0.307,-0.857 1.024,-2.725 2.137,-4.808 1.398,-2.579 3.356,-5.538 6.151,-7.277 v -0.157 c 0,-1.562 0.052,-4.715 0.434,-7.919 0.417,-3.218 1.003,-6.428 2.65,-8.485 2.897,-3.461 15.308,-22.043 24.232,-39.092 1.891,-3.596 2.995,-6.612 2.981,-8.978 -0.002,-0.242 -0.015,-0.477 -0.038,-0.706 M 208.427,70.858 c 1.379,1.496 3.067,3.86 4.783,7.471 2.144,-1.366 4.413,-2.554 6.74,-3.152 -2.481,-1.753 -6.133,-3.41 -11.523,-4.319 M 189.766,50.191 c -0.214,-0.202 -7.871,1.786 -12.168,9.661 -4.289,7.861 2.149,8.935 -2.855,12.513 -5.008,3.584 -5.899,8.295 -1.785,9.66 2.14,0.711 3.929,0.362 7.511,-1.786 3.567,-2.149 2.856,-5.725 3.215,-16.098 0.352,-10.377 6.296,-13.747 6.082,-13.95 m 11.224,-8.137 c 1.281,0 2.51,0.101 3.671,0.323 0.354,-0.659 0.87,-1.732 1.414,-3.204 0.838,-3.473 -0.67,-3.749 -1.512,-4.103 -8.778,-3.537 -9.064,-15.005 -14.193,-12.884 -6.096,2.524 1.263,19.339 1.263,19.339 0,0 -11.9,-4.429 -14.422,-2.535 -2.519,1.895 2.13,7.187 2.13,7.187 0,0 -10.345,-2.6 -12.443,-1.131 -2.106,1.473 1.531,6.786 1.531,6.786 0,0 -7.067,-3.365 -10.223,-1.685 -3.153,1.684 2.97,7.607 2.97,7.607 0,0 -6.748,-2.815 -8.849,-1.131 -0.495,0.396 -0.621,1.055 -0.537,1.823 2.856,4.432 5.405,9.079 7.625,13.909 -0.004,-0.02 -0.007,-0.043 -0.011,-0.066 -0.081,-0.446 -0.157,-0.895 -0.225,-1.349 h 0.001 c -0.228,-1.525 -0.376,-3.074 -0.381,-4.567 0.011,-2.799 0.471,-5.501 2.191,-7.47 2.518,-2.784 8.926,-6.805 16.583,-10.37 7.644,-3.522 16.377,-6.462 23.417,-6.479 m 4.657,16.751 c 0.985,-2.723 1.323,-5.121 1.324,-7.15 0,-2.385 -0.471,-4.263 -0.934,-5.535 -0.054,-0.146 -0.107,-0.283 -0.16,-0.413 l -0.969,-0.303 c -1.044,-0.327 -2.841,-0.529 -3.672,-0.525 -0.831,0.004 -1.798,0.183 -2.565,0.37 3.759,3.862 5.928,9.92 6.976,13.556 M 184.423,-4.26 c -0.234,-0.297 -0.75,-0.922 -0.931,-1.168 -29.561,-30.61 -69.903,-47.496 -111.373,-50.669 -0.598,-7.607 -6.931,-13.593 -14.679,-13.63 -7.748,0.037 -14.081,6.023 -14.679,13.63 -41.471,3.173 -81.813,20.059 -111.373,50.669 -0.182,0.246 -0.698,0.871 -0.932,1.168 -0.78,0.997 -0.99,2.029 -0.99,3.392 0,2.061 1.538,3.743 2.671,4.918 1.133,1.175 2.623,2.632 2.623,2.632 0,0 0.587,0.715 0.79,1.386 0.216,0.714 0.088,1.357 0.016,1.629 -0.451,1.717 -0.701,3.513 -0.704,5.371 -0.02,11.905 9.613,21.57 21.517,21.589 1.845,0.004 3.631,-0.237 5.338,-0.676 0.321,-0.082 0.677,-0.146 1.614,0.009 1.122,0.187 1.423,0.745 1.703,1.032 0.28,0.287 1.829,2.009 3.217,3.263 1.389,1.254 2.71,2.3 4.643,2.3 2.158,0 3.703,-1.22 5.129,-2.824 C -11.878,29.26 0.24,21.326 13.389,15.943 26.913,10.164 41.801,6.96 57.438,6.96 c 15.606,0 30.466,3.189 43.967,8.947 13.182,5.384 25.331,13.329 35.452,23.854 1.426,1.604 2.971,2.824 5.129,2.824 1.933,0 2.983,-0.832 4.642,-2.3 1.66,-1.467 2.806,-2.798 3.217,-3.263 0.411,-0.466 0.591,-0.797 1.703,-1.032 0.723,-0.152 1.293,-0.091 1.616,-0.009 1.705,0.439 3.492,0.68 5.337,0.676 11.903,-0.019 21.538,-9.684 21.516,-21.589 -0.002,-1.858 -0.252,-3.654 -0.703,-5.371 -0.072,-0.272 -0.199,-0.915 0.016,-1.629 0.203,-0.671 0.791,-1.386 0.791,-1.386 0,0 1.602,-1.572 2.623,-2.632 1.02,-1.06 2.67,-2.857 2.67,-4.918 0,-1.363 -0.209,-2.395 -0.991,-3.392 M -83.57,166.404 c 0,0 0.147,0.052 0.331,0.122 0.597,-0.205 1.115,-0.404 1.464,-0.531 0.814,-6.096 -0.319,-9.041 -2.911,-9.774 -2.755,-0.783 -7.593,2.34 -8.96,9.571 0.627,0.214 1.284,0.412 1.955,0.6 0.897,-2.784 2.878,-7.243 5.609,-8.783 0,0 0.56,0.317 0.509,1.022 -0.154,2.116 -0.751,6.629 2.003,7.773 m 17.557,-83.061 c 0.919,0.971 3.227,1.113 4.203,0.356 2.303,-1.784 0.586,-3.41 -1.232,-6.841 -2.939,-5.547 0.989,-9.352 -1.874,-14.907 -2.867,-5.557 -6.434,-7.12 -7.728,-6.135 -1.921,1.467 0.911,4.536 1.863,6.984 2.043,5.261 -2.521,12.835 4.768,20.543 m -9.075,-44.04 c 0,0 -0.601,-1.199 -0.299,-3.301 0,0 -5.394,0.902 -6.595,3 0,0 0.3,-5.094 1.201,-8.988 0,0 -7.19,7.789 -8.088,10.183 0,0 0.598,-9.886 3.594,-15.277 0,0 -7.024,5.136 -6.471,19.172 0,0 0,0 10e-4,-10e-4 0.797,-0.425 1.603,-0.725 2.396,-0.912 0.001,0 0.002,-0.001 0.003,-0.001 0.371,-0.088 0.739,-0.151 1.101,-0.193 0.06,-0.007 0.119,-0.012 0.179,-0.019 0.35,-0.034 0.696,-0.056 1.033,-0.054 3.047,0.019 5.471,1.242 6.477,1.832 0.594,-0.077 1.157,-0.113 1.689,-0.113 3.103,-0.019 5.206,1.308 6.348,2.661 0.447,0.522 0.767,1.033 0.995,1.474 1.137,-0.202 2.213,-0.293 3.229,-0.293 4.551,-0.01 7.803,1.891 9.818,3.772 1.335,1.24 2.166,2.465 2.593,3.187 8.011,1.882 9.984,8.469 10.019,8.653 l 0.067,0.236 -0.017,0.247 c -1.217,18.074 -9.236,25.925 -9.423,26.091 l -0.285,0.275 -0.382,0.085 c -3.603,0.815 -7.185,1.165 -10.684,1.165 -0.825,-10e-4 -1.642,-0.028 -2.456,-0.066 -0.205,-0.01 -0.408,-0.02 -0.611,-0.032 -0.801,-0.046 -1.597,-0.103 -2.385,-0.181 -0.006,-0.001 -0.013,-0.001 -0.02,-0.002 -0.797,-0.08 -1.585,-0.181 -2.369,-0.29 -0.198,-0.029 -0.395,-0.057 -0.592,-0.086 -0.764,-0.114 -1.522,-0.238 -2.27,-0.378 -0.012,-0.003 -0.025,-0.005 -0.039,-0.007 -0.762,-0.143 -1.513,-0.304 -2.257,-0.47 -0.19,-0.043 -0.378,-0.086 -0.566,-0.13 -0.724,-0.168 -1.443,-0.344 -2.149,-0.532 -0.012,-0.003 -0.024,-0.006 -0.036,-0.01 -0.723,-0.192 -1.43,-0.397 -2.131,-0.607 -0.176,-0.053 -0.35,-0.105 -0.525,-0.16 -0.677,-0.208 -1.347,-0.421 -2.002,-0.643 -0.013,-0.005 -0.027,-0.008 -0.04,-0.013 -0.672,-0.227 -1.327,-0.462 -1.974,-0.701 -0.162,-0.06 -0.323,-0.12 -0.484,-0.18 -0.626,-0.236 -1.244,-0.474 -1.844,-0.717 -0.009,-0.002 -0.017,-0.005 -0.025,-0.009 -0.616,-0.247 -1.213,-0.5 -1.8,-0.753 -0.144,-0.063 -0.287,-0.125 -0.43,-0.188 -0.56,-0.244 -1.111,-0.49 -1.642,-0.736 -0.013,-0.006 -0.026,-0.012 -0.038,-0.018 -0.548,-0.253 -1.073,-0.505 -1.587,-0.756 -0.131,-0.063 -0.26,-0.127 -0.388,-0.191 -0.476,-0.235 -0.941,-0.468 -1.387,-0.699 -0.025,-0.013 -0.051,-0.025 -0.076,-0.038 -0.464,-0.239 -0.904,-0.475 -1.332,-0.706 -0.123,-0.067 -0.244,-0.132 -0.363,-0.197 -0.373,-0.205 -0.734,-0.403 -1.077,-0.598 -0.036,-0.021 -0.076,-0.042 -0.111,-0.062 -2.33,-1.322 -3.96,-2.395 -4.71,-2.904 l -5.875,0.73 c -0.304,0.652 -0.629,1.283 -0.963,1.905 -0.064,0.12 -0.127,0.241 -0.192,0.359 -0.328,0.597 -0.666,1.181 -1.017,1.751 -0.063,0.104 -0.127,0.202 -0.19,0.304 -0.35,0.558 -0.708,1.107 -1.076,1.641 -0.022,0.032 -0.044,0.067 -0.066,0.098 -0.388,0.561 -0.787,1.101 -1.192,1.632 -0.07,0.093 -0.141,0.186 -0.212,0.278 -0.403,0.52 -0.811,1.029 -1.225,1.522 -0.046,0.055 -0.092,0.107 -0.138,0.16 -0.415,0.49 -0.834,0.966 -1.256,1.428 -0.026,0.029 -0.052,0.059 -0.079,0.087 -0.438,0.478 -0.879,0.938 -1.321,1.385 l -0.174,0.176 c -0.446,0.447 -0.892,0.881 -1.337,1.298 -0.002,0.001 -0.003,0.003 -0.004,0.004 l 2.288,0.847 c 3.002,9.887 13.186,10.188 13.186,10.188 -1.198,7.492 1.798,13.484 1.798,13.484 l -5.39,-4.797 c -13.315,-1.108 -20.912,-5.568 -25.128,-9.522 l -0.001,0.001 c -0.95,1.252 -1.505,2.449 -1.804,3.581 -0.023,0.09 -0.048,0.181 -0.068,0.271 -0.035,0.149 -0.064,0.298 -0.09,0.445 -0.024,0.14 -0.044,0.278 -0.061,0.414 -0.013,0.109 -0.029,0.217 -0.038,0.325 -0.022,0.249 -0.036,0.496 -0.038,0.738 -0.002,1.898 0.625,3.597 1.271,4.816 0.323,0.611 0.646,1.098 0.882,1.423 0.237,0.327 0.364,0.46 0.36,0.463 l 0.173,0.195 0.092,0.241 c 3.034,7.972 10.642,19.505 17.466,28.929 6.827,9.439 12.86,16.807 12.87,16.825 l 0.402,0.491 -0.1,0.627 c -0.304,1.907 -0.442,3.697 -0.442,5.377 0.007,7.93 3.02,13.44 6.039,17.047 1.511,1.798 3.024,3.105 4.149,3.955 0.563,0.425 1.03,0.736 1.347,0.938 0.318,0.2 0.464,0.275 0.462,0.277 l 0.809,0.435 -0.637,8.571 c 4.706,8.214 8.417,18.188 9.288,20.595 0.815,0.418 1.594,0.841 2.349,1.265 0.244,0.136 0.471,0.272 0.709,0.409 0.502,0.289 0.998,0.577 1.471,0.865 0.258,0.155 0.502,0.308 0.75,0.463 0.433,0.269 0.855,0.535 1.261,0.799 0.235,0.152 0.463,0.301 0.689,0.45 0.402,0.267 0.786,0.525 1.16,0.782 0.196,0.135 0.392,0.268 0.581,0.4 0.394,0.275 0.765,0.538 1.127,0.798 0.137,0.099 0.281,0.2 0.414,0.296 0.917,0.665 1.723,1.268 2.404,1.776 l 0.839,-0.843 c -0.356,-1.758 -0.535,-3.57 -0.535,-5.406 0,-0.021 0.001,-0.042 0.001,-0.063 -3.114,-1.609 -6.492,-3.106 -10.162,-4.441 l -5.695,-11.225 c 0,0 7.188,0.6 9.285,-9.59 0,0 4.413,6.201 11.422,9.812 0.307,-0.443 0.628,-0.875 0.96,-1.297 -3.075,-2.188 -6.239,-5.432 -7.585,-10.013 l 2.696,-1.199 c 0,0 4.742,3.792 10.272,6.011 1.042,-0.76 2.14,-1.449 3.287,-2.058 -3.399,-1.87 -7.123,-4.257 -8.468,-6.347 l 1.799,-1.799 c 0,0 8.09,4.496 9.59,-4.194 1.496,-8.687 -7.789,-10.187 -10.488,-10.187 0,0 0.3,-3.295 3.597,-6.59 0,0 -7.193,-5.693 -17.379,0 -10.187,5.691 -13.683,5.027 -22.367,2.93 0,0 -3.187,-4.512 -1.287,-9.852 -1.953,-1.914 -2.998,-1.715 -5.131,-7.558 -0.867,-3.793 -4.773,-6.497 -4.773,-6.497 0,0 10.488,-0.896 19.176,8.692 0,0 6.591,-7.192 16.48,5.094 0,0 7.789,-6.895 20.373,0.898 0,0 -5.99,-6.592 -16.476,-6.291 0,0 5.091,-4.795 6.886,-9.588 0,0 -3.892,3.594 -13.179,4.494 0,0 1.197,-6.892 5.392,-11.088 0,0 -5.392,4.497 -15.281,2.696 0,0 8.691,-12.582 21.875,-13.782 0,0 -5.096,-1.796 -7.492,-4.492 0,0 5.094,-3.299 12.881,-0.599 0,0 -8.088,-4.494 -11.682,-5.994 0,0 5.392,-1.796 17.072,1.795 -0.008,-0.554 -0.021,-1.106 -0.021,-1.663 0,-0.471 0.012,-0.941 0.018,-1.411 -0.153,-2.104 -0.649,-4.988 -2.091,-7.71 0,0 -5.394,4.797 -10.787,5.992 0,0 6.293,-8.687 2.7,-18.578 0,0 2.243,-3.479 11.091,-3.095 0.697,0.03 1.293,0.035 1.822,0.023 2.644,-11.721 7.122,-22.747 13.117,-32.759 -1.95,-0.686 -3.706,-1.156 -4.759,-1.318 l 5.393,-2.996 c 0,0 -8.688,-2.996 -12.582,-3.597 0,0 2.093,-2.097 3.894,-3.297 0,0 -10.486,-4.793 -14.681,-4.491 0,0 2.396,-2.4 3.595,-2.697 0,0 -6.89,-1.797 -8.99,-0.601 l -0.6,-4.793 c 0,0 -5.992,-0.602 -7.488,1.5 m -13.981,22.194 c 1.034,-3.679 3.178,-9.939 6.844,-14.448 -0.899,-0.492 -2.77,-1.319 -4.808,-1.309 -0.823,0.008 -1.67,0.137 -2.528,0.456 -0.568,1.462 -1.19,3.719 -1.19,6.657 0.001,2.438 0.425,5.34 1.682,8.644 m -7.408,10.342 c -4.641,0.652 -7.349,2.335 -8.966,3.923 -0.157,0.154 -0.135,0.163 -0.272,0.316 l 0.592,0.429 c 0.004,0.003 1.082,0.78 3.082,1.986 0.436,0.263 0.924,0.55 1.441,0.847 1.476,-3.713 2.915,-6.061 4.123,-7.501 m 257.738,47.292 C 161.259,90.448 149.648,64.517 130.852,45.715 112.052,26.921 86.124,15.308 57.438,15.308 c -28.683,0 -54.616,11.613 -73.418,30.407 -18.796,18.802 -30.409,44.733 -30.411,73.416 0.002,28.687 11.615,54.615 30.411,73.417 18.802,18.796 44.735,30.408 73.418,30.41 28.686,-0.002 54.614,-11.614 73.414,-30.41 18.796,-18.802 30.407,-44.73 30.409,-73.417 m -3.749,68.914 c 0,0 0.257,-9.585 6.992,-13.377 -2.507,0.07 -11.447,-1.357 -6.992,13.377 m -226.059,55.434 0.295,0.27 c 32.414,31.64 76.731,51.128 125.602,51.128 h 0.171 c 48.872,0 93.187,-19.488 125.599,-51.128 l 0.304,-0.27 c 1.106,-1.082 1.797,-2.594 1.797,-4.262 0,-1.629 -0.631,-3.105 -1.771,-4.222 l -3.354,-3.328 c -0.664,-0.672 -1.01,-1.594 -1.01,-2.61 0,-0.277 0.034,-0.551 0.086,-0.808 l -0.007,0.011 c 0.398,-1.652 0.611,-3.375 0.611,-5.144 0,-12.051 -9.766,-21.813 -21.809,-21.813 -1.605,0 -3.17,0.176 -4.677,0.504 l -0.049,0.008 -0.151,0.039 c -0.289,0.074 -0.574,0.117 -0.892,0.117 -1.024,0 -1.944,-0.426 -2.598,-1.109 l -0.055,-0.031 -2.984,-3.02 c -1.082,-1.148 -2.588,-1.894 -4.297,-1.894 -1.693,0 -3.209,0.718 -4.32,1.91 -11.614,11.613 -25.727,20.732 -41.459,26.49 -12.16,4.516 -25.314,6.988 -39.047,6.989 -13.708,-0.001 -26.839,-2.464 -38.981,-6.964 -15.76,-5.758 -29.899,-14.884 -41.535,-26.515 -1.104,-1.192 -2.615,-1.91 -4.322,-1.91 -1.7,0 -3.209,0.746 -4.291,1.894 l -2.983,3.02 -0.056,0.06 c -0.661,0.684 -1.579,1.08 -2.6,1.08 -0.313,0 -0.602,-0.043 -0.891,-0.117 l -0.152,-0.039 -0.043,-0.008 c -1.504,-0.328 -3.07,-0.504 -4.68,-0.504 -12.043,0 -21.812,9.762 -21.812,21.813 0,1.769 0.215,3.492 0.617,5.144 l -0.008,-0.011 c 0.057,0.257 0.086,0.531 0.086,0.808 0,1.016 -0.299,1.881 -1.006,2.61 l -3.361,3.328 c -1.137,1.117 -1.772,2.593 -1.772,4.222 0,1.668 0.694,3.18 1.805,4.262 M 257.658,105.421 c -0.031,3.774 -1.537,7.358 -3.53,11.205 l -0.003,-0.001 0.001,0.002 -0.014,-0.002 0.014,0.008 c -9.097,17.313 -21.18,35.492 -24.707,39.825 -0.604,1.015 -1.384,3.404 -1.654,6.058 -0.348,2.873 -0.234,5.802 -0.413,7.585 -0.247,1.678 -1.118,2.787 -2.126,4.223 -1.028,1.4 -2.302,2.972 -3.588,4.777 -1.888,2.646 -3.908,5.515 -5.511,7.824 -1.579,2.268 -2.839,4.144 -2.928,4.328 -0.752,1.313 -1.518,2.359 -1.707,2.821 -0.043,0.095 -0.084,0.185 -0.121,0.27 0.243,1.196 0.541,3.158 0.543,5.614 0,0.08 -0.003,0.133 -0.003,0.16 0.047,6.847 -2.703,17.812 -15.23,24.943 -2.945,1.69 -5.577,3.271 -7.934,4.745 2.431,2.378 3.874,5.779 3.882,9.31 -0.002,0.036 -0.002,0.038 -0.002,0.038 l 0.002,0.063 v 0.015 c -0.002,3.721 -1.547,7.155 -4.06,9.578 l -0.415,0.381 c -33.58,32.793 -79.765,53.106 -130.62,53.106 h -0.009 c -0.019,-0.001 -0.045,-0.001 -0.085,-0.002 h -0.013 c -0.023,10e-4 -0.052,10e-4 -0.089,0.002 -50.865,0 -97.043,-20.313 -130.773,-53.243 l -0.136,-0.12 c -2.612,-2.518 -4.191,-5.946 -4.196,-9.673 v 0 c 0,-0.008 -0.001,-0.035 0,-0.078 0,-0.012 0,-0.025 0,-0.04 0.003,-2.537 0.756,-4.988 2.079,-7.066 -1.5,-0.779 -3.46,-1.835 -5.401,-3.047 -3.146,-2.024 -6.319,-4.231 -7.733,-7.241 -1.069,-2.476 -1.016,-3.614 -1.803,-5.619 -0.723,-1.904 -2.074,-4.518 -3.337,-6.833 -1.276,-2.348 -2.425,-4.324 -2.931,-5.43 -0.655,-1.504 -0.758,-3.131 -0.771,-4.752 0.001,-1.815 0.196,-3.595 0.355,-4.749 -3.962,-2.874 -12.479,-10.788 -12.511,-25.158 0,-1.48 0.092,-3.019 0.287,-4.617 -4.516,-5.654 -23.976,-30.164 -30.081,-45.685 -0.375,-1.112 -3.17,-4.021 -3.183,-9.074 v -0.108 c -0.067,-3.215 0.968,-6.682 4.589,-10.052 l 1.249,-1.102 0.234,-0.178 c 0.141,-0.077 0.602,-0.51 2.159,-1.465 4.403,-2.687 13.703,-9.403 18.146,-19.529 0.038,-0.11 0.102,-0.282 0.195,-0.489 0.175,-0.333 0.293,-0.735 0.944,-1.313 0.494,-0.363 0.633,-0.342 0.8,-0.411 0.512,-0.144 0.921,-0.186 1.522,-0.265 1.718,-0.212 4.284,-0.401 4.3,-0.403 l 0.365,0.006 c 0.321,0.044 0.605,0.126 0.868,0.226 0.16,-0.179 0.311,-0.355 0.492,-0.535 2.37,-2.35 6.602,-4.64 13.784,-4.805 h 0.024 c 0.54,0 0.998,0.407 1.055,0.948 0.058,0.546 -0.313,1.049 -0.852,1.155 l 0.002,0.003 c -0.323,0.114 -2.902,1.372 -5.815,8.819 4.461,2.409 10.933,5.376 18.416,7.226 2.038,-0.989 3.917,-2.137 4.933,-3.356 0,0 -3.896,-9.89 -1.502,-20.676 0,0 -4.704,-3.333 -6.609,-8.255 -0.302,-0.169 -0.607,-0.34 -0.9,-0.506 -0.385,0.851 -0.745,1.701 -1.059,2.526 -1.594,4.156 -2.301,7.623 -2.308,7.627 -0.091,0.444 -0.456,0.78 -0.902,0.838 -0.449,0.058 -0.887,-0.176 -1.088,-0.581 -2.349,-4.75 -3.119,-8.948 -3.117,-12.364 0,-0.641 0.032,-1.248 0.08,-1.831 -0.343,0.135 -0.736,0.23 -1.17,0.226 -0.18,0 -0.407,-0.013 -0.668,-0.067 -1.185,-0.217 -1.917,-1.086 -2.231,-1.656 -0.337,-0.596 -0.422,-1.046 -0.453,-1.171 l -0.013,-0.068 c 0,-0.011 -0.883,-4.558 -0.883,-9.782 0.071,-4.656 0.487,-10.257 4.206,-14.178 5.38,-5.376 14.958,-15.253 14.964,-15.257 l 0.118,-0.113 c 0.148,-0.131 1.47,-1.365 3.718,-2.19 -1.478,-2.146 -2.32,-4.763 -2.327,-7.456 0,-0.008 -10e-4,-0.049 0,-0.115 v -0.001 c 0.002,-3.717 1.546,-7.155 4.063,-9.58 l 0.415,-0.382 c 28.971,-28.289 67.338,-47.285 109.988,-51.963 3.132,-8.279 11.128,-14.166 20.503,-14.166 9.354,0 17.335,5.862 20.482,14.111 42.849,4.59 81.401,23.638 110.615,52.154 l 0.105,0.111 c 0.053,0.061 1.05,1.198 2.081,2.922 1.015,1.731 2.125,4.038 2.147,6.671 0,0.074 -0.002,0.121 -0.002,0.132 -0.058,2.61 -0.801,5.157 -2.188,7.309 2.589,0.769 4.336,2.181 5.366,3.456 0.368,0.456 0.566,0.844 0.859,1.393 0.961,1.858 2.401,5.206 3.946,8.516 1.512,3.273 3.213,6.562 4.193,7.705 1.023,1.404 5.269,4.346 5.382,9.356 0,0.19 -0.007,0.35 -0.012,0.477 -0.145,1.967 -0.892,3.748 -1.567,5.167 -0.339,0.704 -0.672,1.306 -0.921,1.741 -0.072,0.125 -0.134,0.232 -0.19,0.326 0.618,1.452 1.357,3.839 1.358,7.005 0.003,3.018 -0.678,6.716 -2.745,10.897 -0.199,0.404 -0.638,0.639 -1.086,0.581 -0.448,-0.057 -0.811,-0.396 -0.903,-0.838 0,-0.006 -0.625,-3.046 -2.017,-6.687 -0.576,-1.52 -1.3,-3.129 -2.147,-4.651 -14.03,10.211 -11.916,29.014 -11.916,29.014 7.185,2.874 14.836,2.427 20.927,1.156 0.479,-0.36 0.966,-0.721 1.462,-1.079 0.25,-0.178 0.504,-0.355 0.76,-0.532 -1.426,-3.058 -2.805,-5.145 -3.954,-6.53 -0.958,-1.155 -1.754,-1.836 -2.287,-2.22 -0.267,-0.194 -0.469,-0.31 -0.593,-0.378 -0.062,-0.034 -0.104,-0.053 -0.126,-0.063 h -0.002 c -0.496,-0.187 -0.777,-0.715 -0.659,-1.229 0.111,-0.486 0.545,-0.825 1.036,-0.825 0.03,0 0.06,0.001 0.09,0.003 7.302,0.617 12.258,2.551 15.603,4.747 0.475,-0.115 0.948,-0.194 1.41,-0.21 0.323,-0.028 0.64,-0.044 0.963,-0.046 0.079,0 0.115,0.002 0.132,0.002 2.874,-0.004 5.837,1.207 8.045,3.72 7.238,8.144 18.538,15.772 23.433,20.991 2.096,2.24 3.149,5.045 3.14,7.874 v 0.057 h -0.001 z m -21.439,15.663 c 7.729,-8.367 7.823,-3.011 7.823,-3.011 -1.819,-1.27 -7.823,3.011 -7.823,3.011 m -262.566,86.846 20.392,16.698 -7.096,8.664 -10.398,-8.513 -21.307,26.02 -9.992,-8.182 0.374,-0.456 z m 149.097,18.876 c 1.97,-5.339 5.321,-10.014 10.059,-13.294 3.288,-2.276 7.277,-3.847 11.404,-3.849 0.511,0 1.025,0.023 1.539,0.073 4.845,0.486 8.39,3.749 10.896,7.371 1.59,2.299 2.286,4.559 2.284,6.741 -0.004,3.613 -1.865,6.92 -4.362,10.023 l -1.86,2.328 c -0.684,0.893 -1.355,1.78 -1.758,2.741 -0.226,0.526 -0.313,0.977 -0.313,1.354 0.01,1.273 0.974,1.972 2.466,2.01 0.849,0.002 1.821,-0.28 2.706,-0.891 2.22,-1.54 3.505,-3.806 4.235,-6.428 l 0.197,-0.708 10.277,5.498 -0.244,0.507 c -2.043,4.227 -5.596,8.468 -9.473,11.158 h -0.002 c -3.01,2.084 -6.271,3.14 -9.442,3.14 -4.659,0.004 -9.103,-2.295 -12.207,-6.789 -1.826,-2.631 -2.627,-4.958 -2.627,-7.144 0.013,-3.812 2.38,-6.945 5.33,-10.542 1.193,-1.419 3.192,-3.822 3.15,-5.596 -0.004,-0.467 -0.114,-0.883 -0.396,-1.293 -0.7,-0.993 -1.581,-1.359 -2.604,-1.369 -1.022,-0.004 -2.17,0.42 -3.152,1.102 -3.066,2.119 -4.481,5.56 -5.381,9.161 l -0.181,0.722 -10.72,-5.538 z m -82.332,46.535 c 0.357,0.035 0.711,0.052 1.068,0.052 h 0.016 c 5.808,0 10.801,-4.427 11.265,-9.563 h -0.002 c 0.039,-0.439 0.059,-0.872 0.059,-1.296 -0.008,-6.39 -4.462,-11.267 -10.304,-11.815 -0.356,-0.033 -0.708,-0.05 -1.059,-0.05 -5.791,0.007 -10.81,4.43 -11.43,11.045 -0.026,0.276 -0.039,0.552 -0.039,0.83 -0.012,5.177 4.483,10.255 10.426,10.797 m 0.527,-35.09 h 0.036 c 0.882,0 1.778,0.041 2.686,0.126 13.268,1.217 22.375,11.06 22.361,24.052 -0.003,0.878 -0.042,1.772 -0.126,2.676 -1.178,12.62 -12.375,20.698 -24.218,20.692 -0.804,0 -1.609,-0.037 -2.415,-0.111 -12.04,-1.117 -22.474,-10.575 -22.482,-23.039 0,-0.692 0.033,-1.39 0.099,-2.097 1.224,-13.361 11.183,-22.298 24.059,-22.299 m 51.474,22.498 10.364,-29.829 11.822,-4 14.369,42.467 -12.239,4.139 -7.972,-23.568 -10.382,29.778 -11.822,4 -14.369,-42.465 12.239,-4.144 z M 2.327,228.368 14.19,233.48 -3.55,274.651 -15.413,269.54 -15.18,269 Z M -106.458,88.447 c 0,0 -2.516,-2.055 -2.364,-2.976 0.296,-1.793 2.295,-0.615 2.812,-0.075 8.747,9.128 24.628,14.904 24.476,15.838 -0.152,0.933 -13.747,-3.081 -24.924,-12.787 m -13.999,47.195 c -1.558,-2.589 -2.894,-4.797 -4.236,-7.292 0.006,0.002 0.01,0.002 0.016,0.004 -1.424,-2.711 -3.687,-7.059 -4.657,-9.047 2.555,-0.469 5.383,0.027 8.373,2.192 0.337,8.433 8.422,25.966 8.422,25.966 -2.309,-2.871 -5.771,-8.336 -7.925,-11.824 0.003,0.001 0.005,0 0.007,0.001 M 117.824,5.759 l 4.87,-10.446 6.401,-11.293 -0.042,-0.116 -17.211,19.067 -3.728,-1.739 13.655,-29.281 3.883,1.809 -5.017,10.759 -5.163,9.553 -1.121,1.793 0.042,0.114 17.356,-19.375 3.611,1.685 L 121.707,7.57 Z M -80.95,111.309 c -0.206,1.108 -17.192,-3.424 -31.054,-14.722 0,0 -3.122,-2.387 -2.918,-3.479 0.399,-2.124 2.887,-0.762 3.527,-0.132 10.826,10.651 30.649,17.229 30.445,18.333 m 310.095,32.404 c -5.186,7.014 -7.773,9.51 -9.762,22.571 -1.785,11.73 -27.144,0 -27.144,0 -12.463,-3.117 -17.285,0.134 -19.094,2.525 0,0.051 -0.536,0.42 -0.234,-0.246 6.888,-15.178 21.942,-7.342 21.942,-7.342 l 2.766,-2.762 c -0.653,1.603 -0.798,4.001 -0.35,7.362 0.579,0.21 1.592,0.616 2.726,0.925 0.675,-0.899 0.755,-1.504 0.835,-2.901 0.079,-1.38 -0.74,-3.22 -0.739,-4.395 0.001,-1.123 0.824,-1.612 0.824,-1.612 2.885,1.705 5.048,5.84 6.067,8.436 0.743,-0.204 1.468,-0.42 2.158,-0.656 -1.367,-7.231 -6.201,-10.354 -8.963,-9.571 -0.134,0.038 -0.261,0.086 -0.387,0.136 -8.806,-4.016 -3.584,-5.149 -3.584,-5.149 7.318,0 13.939,4.965 13.939,4.965 2.438,-1.219 4.973,-7.1 4.973,-7.1 2.742,-0.303 7.316,-2.744 7.316,-2.744 4.574,-4.27 6.711,-2.442 6.711,-2.442 m 2.857,-4.332 c 0,0 -0.091,-3.543 -6.947,-1.089 0,0 3.344,-5.141 7.969,-6.133 4.971,-1.065 1.703,4.312 -1.022,7.222 m 7.43,-11.914 c 0,0 -0.724,-2.914 -8.752,2.367 0,0 4.858,-6.253 8.422,-7.236 3.559,-0.982 1.611,3.805 0.33,4.869" /></g></g></g></g></svg>