<svg id="SvgjsSvg2098" width="288" height="288" xmlns="http://www.w3.org/2000/svg" version="1.1" xmlns:xlink="http://www.w3.org/1999/xlink" xmlns:svgjs="http://svgjs.com/svgjs"><defs id="SvgjsDefs2099"></defs><g id="SvgjsG2100"><svg xmlns="http://www.w3.org/2000/svg" width="288" height="288" viewBox="0 0 92.485 69.363"><path fill="#9900f0" d="M90.377,17.621H83.91v-9.7l-13.351-.2.069,9.909H30.51l.274-9.909-13.073.2v9.909l-6.606-.2A6.608,6.608,0,0,0,4.5,24.227V70.47A6.608,6.608,0,0,0,11.1,77.076H90.377a6.608,6.608,0,0,0,6.606-6.606V24.227A6.608,6.608,0,0,0,90.377,17.621ZM73.862,11.015h6.606V24.227H73.862Zm-42.939,22.5c3.99,0,7.227,4.251,7.227,9.5s-3.237,9.5-7.227,9.5-7.227-4.251-7.227-9.5,3.237-9.5,7.227-9.5Zm-9.909-22.5H27.62V24.227H21.014Zm-4.4,52.677s.783-6.282,2.563-7.468,6.9-1.975,6.9-1.975S29.4,57.8,30.814,57.8s4.733-3.551,4.733-3.551,5.126.786,6.907,1.975c2.091,1.394,2.613,7.468,2.613,7.468H16.611Zm67.16-3.131H54.044v-3.3H83.771Zm0-6.606H54.044v-3.3H83.771Zm0-6.606H54.044v-3.3H83.771Zm0-6.606H54.044v-3.3H83.771Z" transform="translate(-4.499 -7.712)" class="colorf98367 svgShape"></path></svg></g></svg>