<svg id="SvgjsSvg2103" width="288" height="288" xmlns="http://www.w3.org/2000/svg" version="1.1" xmlns:xlink="http://www.w3.org/1999/xlink" xmlns:svgjs="http://svgjs.com/svgjs"><defs id="SvgjsDefs2104"></defs><g id="SvgjsG2105"><svg xmlns="http://www.w3.org/2000/svg" width="288" height="288" viewBox="0 0 60 60"><g transform="translate(-1511 -1138)" fill="#000000" class="color000 svgShape"><rect width="60" height="60" fill="none" transform="translate(1511 1138)"></rect><path fill="#9900f0" d="M28.894,58.375a5.5,5.5,0,0,0,5.475-5.5H23.419A5.5,5.5,0,0,0,28.894,58.375Zm17.794-16.5V26.75A17.824,17.824,0,0,0,33,9.425V7.5a4.106,4.106,0,1,0-8.213,0V9.425A17.824,17.824,0,0,0,11.1,26.75V41.875l-5.475,5.5v2.75H52.163v-2.75Z" data-name="notification" transform="translate(1512.106 1137.125)" class="colorf97b5e svgShape"></path></g></svg></g></svg>