<svg id="SvgjsSvg2133" width="288" height="288" xmlns="http://www.w3.org/2000/svg" version="1.1" xmlns:xlink="http://www.w3.org/1999/xlink" xmlns:svgjs="http://svgjs.com/svgjs"><defs id="SvgjsDefs2134"></defs><g id="SvgjsG2135"><svg xmlns="http://www.w3.org/2000/svg" width="288" height="288" viewBox="0 0 76 86.866"><path fill="#9900f0" d="M67.862,76.008H8.141a2.715,2.715,0,0,0-2.715,2.715v5.429a2.715,2.715,0,0,0,2.715,2.715H67.862a2.715,2.715,0,0,0,2.715-2.715V78.723A2.715,2.715,0,0,0,67.862,76.008Zm2.715-48.862H43.431V19h6.786a1.357,1.357,0,0,0,1.357-1.357V9.5a1.357,1.357,0,0,0-1.357-1.357H43.431V1.357A1.357,1.357,0,0,0,42.073,0H33.93a1.357,1.357,0,0,0-1.357,1.357V8.144H25.786A1.357,1.357,0,0,0,24.429,9.5v8.144A1.357,1.357,0,0,0,25.786,19h6.786v8.144H5.427A5.429,5.429,0,0,0,.249,34.193l12.4,36.385H63.356l12.4-36.385a5.429,5.429,0,0,0-5.178-7.048Z" transform="translate(-.002)" class="colorf88166 svgShape"></path></svg></g></svg>