<svg id="SvgjsSvg3004" width="288" height="288" xmlns="http://www.w3.org/2000/svg" version="1.1" xmlns:xlink="http://www.w3.org/1999/xlink" xmlns:svgjs="http://svgjs.com/svgjs"><defs id="SvgjsDefs3005"></defs><g id="SvgjsG3006"><svg xmlns="http://www.w3.org/2000/svg" width="288" height="288" fill="none" viewBox="0 0 25 15"><path fill="#9900f0" d="M12.409 14.998C12.2798 14.9989 12.1529 14.9642 12.042 14.8979 6.14805 11.3269 5.61099 4.53218 5.58599 2.53418 5.58469 2.43124 5.60599 2.32922 5.64825 2.23535 5.69051 2.14148 5.75269 2.05799 5.83062 1.99072 5.90856 1.92346 6.00038 1.87379 6.09942 1.8457 6.19846 1.81762 6.30247 1.81179 6.40411 1.82812 9.57511 2.33513 11.188 1.05795 11.867.251953 11.9334.173097 12.0162.109933 12.1097.0664062 12.2031.0228796 12.3049.0000870465 12.408 0 12.5111.0000192713 12.6129.0223866 12.7064.065918 12.7998.109449 12.8827.173045 12.949.251953 13.627 1.05895 15.2382 2.33713 18.4112 1.82812 18.5129 1.81144 18.6169 1.81727 18.7161 1.84521 18.8154 1.87316 18.9073 1.92243 18.9854 1.98975 19.0635 2.05706 19.126 2.14082 19.1683 2.23486 19.2105 2.3289 19.2315 2.43109 19.23 2.53418 19.206 4.53418 18.668 11.3259 12.774 14.8979 12.6638 14.9642 12.5375 14.9989 12.409 14.998V14.998zM7.03399 3.32275C7.19799 5.67275 8.07499 10.5961 12.409 13.4561 16.742 10.5971 17.62 5.67375 17.784 3.32275 16.187 2.27527 14.3188 1.71729 12.409 1.71729 10.4992 1.71729 8.63094 2.27527 7.03399 3.32275V3.32275zM24.0601 7.05096H20.1602C19.9726 7.05096 19.7927 6.97651 19.6602 6.84393 19.5276 6.71134 19.4531 6.53143 19.4531 6.34393 19.4531 6.15642 19.5276 5.97651 19.6602 5.84393 19.7927 5.71134 19.9726 5.63689 20.1602 5.63689H24.0601C24.2476 5.63689 24.4275 5.71134 24.5601 5.84393 24.6926 5.97651 24.7671 6.15642 24.7671 6.34393 24.7671 6.53143 24.6926 6.71134 24.5601 6.84393 24.4275 6.97651 24.2476 7.05096 24.0601 7.05096V7.05096z" class="color000 svgShape"></path><path fill="#9900f0" d="M22.4434 9.09206H19.3552C19.1677 9.09206 18.9881 9.01762 18.8555 8.88503 18.7229 8.75244 18.6484 8.57253 18.6484 8.38503 18.6484 8.19752 18.7229 8.01762 18.8555 7.88503 18.9881 7.75244 19.1677 7.678 19.3552 7.678H22.4434C22.6309 7.678 22.8108 7.75244 22.9434 7.88503 23.0759 8.01762 23.1504 8.19752 23.1504 8.38503 23.1504 8.57253 23.0759 8.75244 22.9434 8.88503 22.8108 9.01762 22.6309 9.09206 22.4434 9.09206V9.09206zM20.8247 11.1331H18.5469C18.3594 11.1331 18.1795 11.0587 18.0469 10.9261 17.9143 10.7935 17.8398 10.6136 17.8398 10.4261 17.8398 10.2386 17.9143 10.0587 18.0469 9.92611 18.1795 9.79352 18.3594 9.71907 18.5469 9.71907H20.8247C21.0122 9.71907 21.1921 9.79352 21.3247 9.92611 21.4573 10.0587 21.5317 10.2386 21.5317 10.4261 21.5317 10.6136 21.4573 10.7935 21.3247 10.9261 21.1921 11.0587 21.0122 11.1331 20.8247 11.1331V11.1331zM4.60718 7.05096H.707031C.519523 7.05096.339864 6.97651.207275 6.84393.0746872 6.71134 0 6.53143 0 6.34393 0 6.15642.0746872 5.97651.207275 5.84393.339864 5.71134.519523 5.63689.707031 5.63689H4.60718C4.79469 5.63689 4.97435 5.71134 5.10693 5.84393 5.23952 5.97651 5.31396 6.15642 5.31396 6.34393 5.31396 6.53143 5.23952 6.71134 5.10693 6.84393 4.97435 6.97651 4.79469 7.05096 4.60718 7.05096V7.05096zM5.41602 9.09206H2.32812C2.14062 9.09206 1.96071 9.01762 1.82812 8.88503 1.69554 8.75244 1.62109 8.57253 1.62109 8.38503 1.62109 8.19752 1.69554 8.01762 1.82812 7.88503 1.96071 7.75244 2.14062 7.678 2.32812 7.678H5.41602C5.60352 7.678 5.78343 7.75244 5.91602 7.88503 6.0486 8.01762 6.12305 8.19752 6.12305 8.38503 6.12305 8.57253 6.0486 8.75244 5.91602 8.88503 5.78343 9.01762 5.60352 9.09206 5.41602 9.09206V9.09206zM6.2251 11.1331H3.94727C3.75976 11.1331 3.57985 11.0587 3.44727 10.9261 3.31468 10.7935 3.24023 10.6136 3.24023 10.4261 3.24023 10.2386 3.31468 10.0587 3.44727 9.92611 3.57985 9.79352 3.75976 9.71907 3.94727 9.71907H6.2251C6.41261 9.71907 6.59251 9.79352 6.7251 9.92611 6.85769 10.0587 6.93213 10.2386 6.93213 10.4261 6.93213 10.6136 6.85769 10.7935 6.7251 10.9261 6.59251 11.0587 6.41261 11.1331 6.2251 11.1331V11.1331zM10.9607 9.96016C10.8687 9.95988 10.7778 9.93936 10.6944 9.90059 10.6109 9.86183 10.5369 9.80569 10.4773 9.73555 10.4177 9.66542 10.3739 9.58298 10.3491 9.49434 10.3244 9.40571 10.3192 9.31275 10.3338 9.22188L10.5828 7.68673 9.52785 6.60518C9.44644 6.52148 9.3895 6.41678 9.36354 6.30294 9.33758 6.1891 9.34355 6.07039 9.38063 5.95968 9.41771 5.84896 9.48446 5.75026 9.57374 5.67501 9.66303 5.59976 9.77133 5.55071 9.88673 5.53292L11.3198 5.31319 11.9658 3.94112C12.0171 3.83195 12.0984 3.73965 12.2002 3.67501 12.302 3.61037 12.4202 3.57584 12.5408 3.57589V3.57589C12.6615 3.5758 12.7797 3.61017 12.8816 3.67501 12.9835 3.73984 13.0647 3.83267 13.1157 3.9421L13.7627 5.31612 15.1939 5.53389C15.3095 5.5512 15.4182 5.60035 15.5078 5.6755 15.5975 5.75064 15.6644 5.84879 15.7017 5.95968 15.7389 6.07056 15.7449 6.1899 15.7188 6.30391 15.6927 6.41793 15.6355 6.52254 15.5537 6.60616L14.4998 7.68917 14.7498 9.22188C14.7691 9.33977 14.7548 9.46086 14.7085 9.571 14.6623 9.68115 14.586 9.77616 14.4883 9.84493 14.3906 9.9137 14.2756 9.95327 14.1563 9.95967 14.037 9.96608 13.9182 9.93898 13.8137 9.88106L12.5408 9.18087 11.2678 9.88106C11.1738 9.93293 11.0681 9.96021 10.9607 9.96016V9.96016zM11.3027 6.60421L11.7168 7.02803C11.7864 7.09913 11.8384 7.18564 11.8684 7.28048 11.8985 7.37532 11.9056 7.47573 11.8897 7.57393L11.7998 8.13497 12.2349 7.89376C12.3292 7.84167 12.435 7.81466 12.5427 7.81466 12.6505 7.81466 12.7565 7.84167 12.8508 7.89376L13.2847 8.13497 13.1939 7.57784C13.1777 7.47972 13.1847 7.37923 13.2146 7.28438 13.2445 7.18953 13.2963 7.10308 13.3657 7.03194L13.7818 6.60421 13.2388 6.5212C13.1358 6.50547 13.0384 6.46431 12.9548 6.40206 12.8713 6.33981 12.8043 6.25796 12.7598 6.16378L12.5437 5.70479 12.3289 6.16085C12.2844 6.25511 12.2173 6.33721 12.1338 6.39962 12.0503 6.46203 11.9529 6.50276 11.8499 6.51876L11.3027 6.60421z" class="color000 svgShape"></path></svg></g></svg>