<svg id="SvgjsSvg3014" width="288" height="288" xmlns="http://www.w3.org/2000/svg" version="1.1" xmlns:xlink="http://www.w3.org/1999/xlink" xmlns:svgjs="http://svgjs.com/svgjs"><defs id="SvgjsDefs3015"></defs><g id="SvgjsG3016"><svg xmlns="http://www.w3.org/2000/svg" width="288" height="288" viewBox="0 0 68.002 68.02"><path fill="#9900f0" d="M66.888,38.5A8.751,8.751,0,0,1,72.5,30.337a34.685,34.685,0,0,0-4.2-10.112,8.868,8.868,0,0,1-3.559.761A8.731,8.731,0,0,1,56.759,8.7,34.58,34.58,0,0,0,46.665,4.5a8.743,8.743,0,0,1-16.328,0A34.685,34.685,0,0,0,20.225,8.7a8.731,8.731,0,0,1-7.987,12.29,8.579,8.579,0,0,1-3.559-.761A35.452,35.452,0,0,0,4.5,30.355a8.741,8.741,0,0,1,5.614,8.164,8.76,8.76,0,0,1-5.6,8.164,34.685,34.685,0,0,0,4.2,10.112A8.735,8.735,0,0,1,20.243,68.323a34.888,34.888,0,0,0,10.112,4.2,8.727,8.727,0,0,1,16.292,0,34.685,34.685,0,0,0,10.112-4.2A8.743,8.743,0,0,1,68.287,56.794a34.888,34.888,0,0,0,4.2-10.112A8.792,8.792,0,0,1,66.888,38.5ZM38.66,52.65A14.167,14.167,0,1,1,52.827,38.483,14.163,14.163,0,0,1,38.66,52.65Z" data-name="setting _icon" transform="translate(-4.5 -4.5)" class="color434b5d svgShape"></path></svg></g></svg>