<svg id="SvgjsSvg3029" width="288" height="288" xmlns="http://www.w3.org/2000/svg" version="1.1" xmlns:xlink="http://www.w3.org/1999/xlink" xmlns:svgjs="http://svgjs.com/svgjs"><defs id="SvgjsDefs3030"></defs><g id="SvgjsG3031"><svg xmlns="http://www.w3.org/2000/svg" width="288" height="288" viewBox="0 0 50 49.999"><path fill="#9900f0" d="M28,5.487,16.414,17.07H3.125A3.124,3.124,0,0,0,0,20.195v18.75a3.125,3.125,0,0,0,3.125,3.125H16.414L28,53.651a3.127,3.127,0,0,0,5.334-2.21V7.7A3.127,3.127,0,0,0,28,5.487ZM44.039,19.56a3.126,3.126,0,1,0-3.016,5.476,5.133,5.133,0,0,1,0,9.066,3.126,3.126,0,0,0,3.016,5.476,11.385,11.385,0,0,0,0-20.019Z" transform="translate(0 -4.57)" class="colorf88166 svgShape"></path></svg></g></svg>