<svg id="SvgjsSvg3779" width="288" height="288" xmlns="http://www.w3.org/2000/svg" version="1.1" xmlns:xlink="http://www.w3.org/1999/xlink" xmlns:svgjs="http://svgjs.com/svgjs"><defs id="SvgjsDefs3780"></defs><g id="SvgjsG3781"><svg xmlns="http://www.w3.org/2000/svg" width="288" height="288" viewBox="0 0 74 74"><g transform="translate(457 -374)" fill="#000000" class="color000 svgShape"><path fill="#9900f0" d="M-457,531.365v-43.07a3.011,3.011,0,0,0,.126-.334,5.7,5.7,0,0,1,5.839-4.6q27.775-.014,55.551,0a5.735,5.735,0,0,1,5.979,6.021q.011,4.479,0,8.957c0,.209-.024.418-.04.678h-.83c-3.106,0-6.213-.026-9.319.006a10.84,10.84,0,0,0-10.5,13.214,10.765,10.765,0,0,0,10.3,8.443c3.178.052,6.357.015,9.535.017h.765a1.327,1.327,0,0,1,.078.273c0,3.3.078,6.6-.032,9.9A5.393,5.393,0,0,1-392.8,535.7a14.548,14.548,0,0,1-1.614.58h-57.668a18.317,18.317,0,0,1-2.406-1.05A5.96,5.96,0,0,1-457,531.365Z" data-name="Path 13045" transform="translate(0 -88.279)" class="colorf87758 svgShape"></path><path fill="#9900f0" d="M-385.17,374c2.032.548,2.348,2.316,2.895,4.03-.935,0-1.8-.021-2.661,0a7.188,7.188,0,0,0-7.019,7.106c-.029,1.829-.005,3.658-.005,5.6h-.8c-6.286,0-12.572-.01-18.858.016a.886.886,0,0,1-1.016-.733c-.294-.939-.674-1.852-1-2.782a2.893,2.893,0,0,1,1.851-3.938q12.6-4.587,25.212-9.167a1.763,1.763,0,0,0,.245-.136Z" data-name="Path 13046" transform="translate(-34.83)" class="colorf87758 svgShape"></path><path fill="#9900f0" d="M-169.866,598.465a2.661,2.661,0,0,1-2.815,1.636c-4.67-.054-9.341.017-14.011-.045a6.435,6.435,0,0,1-6.3-6.571,6.47,6.47,0,0,1,6.424-6.393c4.814-.06,9.63-.021,14.444-.014a2.33,2.33,0,0,1,2.254,1.7Zm-16.6-2.728a2.159,2.159,0,0,0,2.145-2.156,2.209,2.209,0,0,0-2.151-2.17,2.209,2.209,0,0,0-2.181,2.212A2.158,2.158,0,0,0-186.466,595.737Z" data-name="Path 13047" transform="translate(-213.134 -172)" class="colorf87758 svgShape"></path><path fill="#9900f0" d="M-252.459,425.713H-277.71c0-2-.089-3.973.03-5.932a2.669,2.669,0,0,1,2.729-2.4q9.862-.027,19.724,0a2.749,2.749,0,0,1,2.751,2.632C-252.412,421.888-252.459,423.766-252.459,425.713Z" data-name="Path 13048" transform="translate(-144.714 -35.01)" class="colorf87758 svgShape"></path></g></svg></g></svg>